v -0.038118 -0.036504 -0.65
v -0.038118 -0.04748 -0.65
v -0.047874 -0.048089 -0.65
newmtl 1
Ka 0.25098039215686274 0.25098039215686274 0.25098039215686274
Kd 0.25098039215686274 0.25098039215686274 0.25098039215686274
Ks 0.12549019607843137 0.12549019607843137 0.12549019607843137
d 0.0
endmtl
v 0.01554 -0.04748 -0.65
v -0.035679 0.041545 -0.65
v 0.002126 0.041545 -0.65
v 0.002126 0.008618 -0.65
v 0.035053 -0.042297 -0.65
v 0.035053 -0.031321 -0.65
v 0.01554 0.05252 -0.65
v 0.002126 -0.002358 -0.65
v 0.002126 -0.036504 -0.65
v -0.03324 -0.002358 -0.65
v -0.03324 0.008618 -0.65
v 0.084584 -0.044085 -0.65
v 0.117979 -0.04748 -0.65
v 0.074891 -0.047421 -0.65
v 0.068449 -0.048089 -0.65
v -0.035679 0.05252 -0.65
v -0.047874 0.707922 -0.65
v 0.104165 0.026182 -0.65
v 0.098304 0.035531 -0.65
v 0.155784 0.05252 -0.65
v 0.068318 0.041659 -0.65
v 0.075803 0.038957 -0.65
v 0.036845 -0.032314 -0.65
v 0.082724 0.034327 -0.65
v 0.088763 0.02766 -0.65
v 0.096028 0.001453 -0.65
v 0.095016 -0.009372 -0.65
v 0.092299 -0.017974 -0.65
v 0.070047 -0.036677 -0.65
v 0.06072 -0.037723 -0.65
v 0.077333 -0.033995 -0.65
v 0.08347 -0.029858 -0.65
v 0.088163 -0.024908 -0.65
v 0.047445 -0.03625 -0.65
v 0.092886 0.019939 -0.65
v 0.095551 0.009234 -0.65
v 0.089276 0.044214 -0.65
v 0.169199 0.05252 -0.65
v 1.357922 0.707922 -0.65
v 0.169199 -0.04748 -0.65
v 1.357922 -0.048089 -0.65
v 0.092628 -0.038948 -0.65
v 0.100139 -0.031041 -0.65
v 0.117979 -0.036504 -0.65
v 0.105466 -0.021532 -0.65
v 0.155784 -0.036504 -0.65
v 0.108476 -0.010947 -0.65
v 0.109443 6.34E-4 -0.65
v 0.108004 0.014851 -0.65
v 0.079777 0.049681 -0.65
v 0.068629 0.05292 -0.65
v 0.058585 0.05374 -0.65
v 0.046614 0.052914 -0.65
v 0.035053 0.049777 -0.65
v 0.035053 0.036362 -0.65
v 0.046317 0.041185 -0.65
v 0.058471 0.042764 -0.65
v 0.062568 -0.048699 -0.65
v 1.357922 -0.707922 -0.65
v 0.059834 -0.048652 -0.65
v -0.047874 -0.707922 -0.65
v 0.055817 -0.048089 -0.65
v -1.357922 -0.707922 -0.65
v -1.357922 -0.048089 -0.65
v 0.045712 -0.046673 -0.65
v -0.160069 -0.04748 -0.65
v -0.145435 -0.04748 -0.65
v -0.133125 -0.020072 -0.65
v -0.12739 -0.029016 -0.65
v -0.119159 -0.036897 -0.65
v -0.108718 -0.042965 -0.65
v -0.18324 0.05252 -0.65
v -1.357922 0.707922 -0.65
v -0.196655 0.05252 -0.65
v -0.235679 -0.04748 -0.65
v -0.221045 -0.04748 -0.65
v -0.210927 -0.019431 -0.65
v -0.169616 -0.019431 -0.65
v -0.05763 0.05252 -0.65
v -0.085851 0.05252 -0.65
v -0.122987 0.039482 -0.65
v -0.130058 0.03164 -0.65
v -0.134706 0.02304 -0.65
v -0.100298 0.050976 -0.65
v -0.111998 0.046868 -0.65
v -0.122882 0.039573 -0.65
v -0.097195 -0.046399 -0.65
v -0.084822 -0.04748 -0.65
v -0.05763 -0.04748 -0.65
v -0.137391 0.013188 -0.65
v -0.138118 0.003778 -0.65
v -0.136715 -0.009605 -0.65
v 1.375404 0.775282 0.353488
v 1.400122 0.8 0.0
v 1.15 0.8 -0.0
v 1.15 0.789511 0.15
v 0.75 0.789511 0.15
v -1.375404 0.775282 0.353488
v -1.15 0.8 -0.0
v -1.400122 0.8 -0.0
v -1.15 0.789511 0.15
v -0.75 0.789511 0.15
v -0.75 0.8 0.0
v 0.75 0.8 0.0
v -1.375404 -0.775282 0.353488
v -1.400122 -0.8 0.0
v -1.15 -0.8 0.0
v -0.75 -0.8 -0.0
v -0.2 -0.8 -0.0
v -0.75 -0.789511 0.15
v -0.2 -0.789511 0.15
v -1.15 -0.789511 0.15
v 1.375404 -0.775282 0.353488
v 0.2 -0.789511 0.15
v 1.15 -0.8 -0.0
v 1.400122 -0.8 -0.0
v 1.15 -0.789511 0.15
v 0.75 -0.789511 0.15
v 0.75 -0.8 0.0
v 0.2 -0.8 -0.0
v 1.45 0.750122 0.0
v 1.45 -0.750122 -0.0
v 1.4078 0.707922 -0.603488
v 1.4078 -0.707922 -0.603488
v 1.357922 -0.7578 -0.603488
v -1.357922 -0.7578 -0.603488
v -1.45 -0.750122 -0.0
v -1.45 0.750122 -0.0
v -1.4078 -0.707922 -0.603488
v -1.4078 0.707922 -0.603488
v 1.357922 0.7578 -0.603488
v -1.357922 0.7578 -0.603488
v 1.425282 0.725404 0.353488
v 1.425282 -0.725404 0.353488
v -1.425282 -0.725404 0.353488
v -1.425282 0.725404 0.353488
v -0.814445 -0.484416 0.4
v -0.830553 -0.523305 0.4
v 1.375404 -0.725404 0.4
v -0.856178 -0.556699 0.4
v -0.889572 -0.582323 0.4
v -0.92846 -0.598431 0.4
v -0.970193 -0.603925 0.4
v -1.375404 -0.725404 0.4
v -1.011925 -0.598431 0.4
v -1.050814 -0.582323 0.4
v -1.084208 -0.556699 0.4
v -1.109832 -0.523305 0.4
v -1.109832 -0.362063 0.4
v -1.084208 -0.328668 0.4
v -1.375404 0.725404 0.4
v -1.050814 -0.303044 0.4
v -1.011925 -0.286936 0.4
v -0.970193 -0.281442 0.4
v -0.92846 -0.286936 0.4
v 1.375404 0.725404 0.4
v -0.889572 -0.303044 0.4
v -0.856178 -0.328668 0.4
v -0.830553 -0.362063 0.4
v -0.814445 -0.400951 0.4
v -0.808951 -0.442684 0.4
v -1.12594 -0.484416 0.4
v -1.131435 -0.442684 0.4
v -1.12594 -0.400951 0.4
v 0.2 -0.908914 -0.0
v -0.2 -0.908914 -0.0
newmtl 2
Ka 1.0 1.0 1.0
Kd 1.0 1.0 1.0
Ks 0.5019607843137255 0.5019607843137255 0.5019607843137255
d 0.0
endmtl
v -0.2 -0.908914 0.15
v 0.2 -0.908914 0.15
v 0.2 -1.45 -0.55
v 0.2 -1.45 -0.7
v 0.2 -1.199239 -0.55
v 0.2 -1.199239 -0.7
v 0.2 -1.187002 -0.548479
v 0.2 -1.15029 -0.693918
v 0.2 -1.175509 -0.54401
v 0.2 -1.104319 -0.67604
v 0.2 -1.165459 -0.536864
v 0.2 -1.064121 -0.647455
v 0.2 -1.157465 -0.527475
v 0.2 -1.032141 -0.609902
v 0.2 -1.152011 -0.516416
v 0.2 -1.010325 -0.565663
v 0.2 -1.149429 -0.504358
v 0.2 -1.0 -0.517431
v 0.2 -1.108153 -0.032569
v 0.2 -0.958724 -0.045642
v 0.2 -1.097828 0.015663
v 0.2 -0.956142 -0.033584
v 0.2 -1.076012 0.059902
v 0.2 -0.950688 -0.022525
v 0.2 -1.044032 0.097455
v 0.2 -0.942694 -0.013136
v 0.2 -1.003834 0.12604
v 0.2 -0.932644 -0.00599
v 0.2 -0.957863 0.143918
v 0.2 -0.921151 -0.001521
v -0.2 -0.957863 0.143918
v -0.2 -0.921151 -0.001521
v -0.2 -1.003834 0.12604
v -0.2 -0.932644 -0.00599
v -0.2 -1.044032 0.097455
v -0.2 -0.942694 -0.013136
v -0.2 -1.076012 0.059902
v -0.2 -0.950688 -0.022525
v -0.2 -1.097828 0.015663
v -0.2 -0.956142 -0.033584
v -0.2 -1.108153 -0.032569
v -0.2 -0.958724 -0.045642
v -0.2 -1.149429 -0.504358
v -0.2 -1.0 -0.517431
v -0.2 -1.152011 -0.516416
v -0.2 -1.010325 -0.565663
v -0.2 -1.157465 -0.527475
v -0.2 -1.032141 -0.609902
v -0.2 -1.165459 -0.536864
v -0.2 -1.064121 -0.647455
v -0.2 -1.175509 -0.54401
v -0.2 -1.104319 -0.67604
v -0.2 -1.187002 -0.548479
v -0.2 -1.15029 -0.693918
v -0.2 -1.199239 -0.55
v -0.2 -1.199239 -0.7
v -0.2 -1.45 -0.55
v -0.2 -1.45 -0.7
v 1.15 -0.908914 -0.0
v 0.75 -0.908914 -0.0
v 0.75 -0.908914 0.15
v 1.15 -0.908914 0.15
v 1.15 -1.45 -0.55
v 1.15 -1.45 -0.7
v 1.15 -1.199239 -0.55
v 1.15 -1.199239 -0.7
v 1.15 -1.187002 -0.548479
v 1.15 -1.15029 -0.693918
v 1.15 -1.175509 -0.54401
v 1.15 -1.104319 -0.67604
v 1.15 -1.165459 -0.536864
v 1.15 -1.064121 -0.647455
v 1.15 -1.157465 -0.527475
v 1.15 -1.032141 -0.609902
v 1.15 -1.152011 -0.516416
v 1.15 -1.010325 -0.565663
v 1.15 -1.149429 -0.504358
v 1.15 -1.0 -0.517431
v 1.15 -1.108153 -0.032569
v 1.15 -0.958724 -0.045642
v 1.15 -1.097828 0.015663
v 1.15 -0.956142 -0.033584
v 1.15 -1.076012 0.059902
v 1.15 -0.950688 -0.022525
v 1.15 -1.044032 0.097455
v 1.15 -0.942694 -0.013136
v 1.15 -1.003834 0.12604
v 1.15 -0.932644 -0.00599
v 1.15 -0.957863 0.143918
v 1.15 -0.921151 -0.001521
v 0.75 -1.45 -0.55
v 0.75 -1.199239 -0.55
v 0.75 -1.45 -0.7
v 0.75 -1.199239 -0.7
v 0.75 -1.15029 -0.693918
v 0.75 -1.104319 -0.67604
v 0.75 -1.064121 -0.647455
v 0.75 -1.032141 -0.609902
v 0.75 -1.010325 -0.565663
v 0.75 -1.0 -0.517431
v 0.75 -0.958724 -0.045642
v 0.75 -0.956142 -0.033584
v 0.75 -0.950688 -0.022525
v 0.75 -0.942694 -0.013136
v 0.75 -0.932644 -0.00599
v 0.75 -0.921151 -0.001521
v 0.75 -0.957863 0.143918
v 0.75 -1.003834 0.12604
v 0.75 -1.044032 0.097455
v 0.75 -1.076012 0.059902
v 0.75 -1.097828 0.015663
v 0.75 -1.108153 -0.032569
v 0.75 -1.149429 -0.504358
v 0.75 -1.152011 -0.516416
v 0.75 -1.157465 -0.527475
v 0.75 -1.165459 -0.536864
v 0.75 -1.175509 -0.54401
v 0.75 -1.187002 -0.548479
v -0.75 -0.908914 -0.0
v -1.15 -0.908914 -0.0
v -1.15 -0.908914 0.15
v -0.75 -0.908914 0.15
v -0.75 -1.45 -0.55
v -0.75 -1.45 -0.7
v -0.75 -1.199239 -0.55
v -0.75 -1.199239 -0.7
v -0.75 -1.187002 -0.548479
v -0.75 -1.15029 -0.693918
v -0.75 -1.175509 -0.54401
v -0.75 -1.104319 -0.67604
v -0.75 -1.165459 -0.536864
v -0.75 -1.064121 -0.647455
v -0.75 -1.157465 -0.527475
v -0.75 -1.032141 -0.609902
v -0.75 -1.152011 -0.516416
v -0.75 -1.010325 -0.565663
v -0.75 -1.149429 -0.504358
v -0.75 -1.0 -0.517431
v -0.75 -1.108153 -0.032569
v -0.75 -0.958724 -0.045642
v -0.75 -1.097828 0.015663
v -0.75 -0.956142 -0.033584
v -0.75 -1.076012 0.059902
v -0.75 -0.950688 -0.022525
v -0.75 -1.044032 0.097455
v -0.75 -0.942694 -0.013136
v -0.75 -1.003834 0.12604
v -0.75 -0.932644 -0.00599
v -0.75 -0.957863 0.143918
v -0.75 -0.921151 -0.001521
v -1.15 -1.45 -0.55
v -1.15 -1.199239 -0.55
v -1.15 -1.45 -0.7
v -1.15 -1.199239 -0.7
v -1.15 -1.15029 -0.693918
v -1.15 -1.104319 -0.67604
v -1.15 -1.064121 -0.647455
v -1.15 -1.032141 -0.609902
v -1.15 -1.010325 -0.565663
v -1.15 -1.0 -0.517431
v -1.15 -0.958724 -0.045642
v -1.15 -0.956142 -0.033584
v -1.15 -0.950688 -0.022525
v -1.15 -0.942694 -0.013136
v -1.15 -0.932644 -0.00599
v -1.15 -0.921151 -0.001521
v -1.15 -0.957863 0.143918
v -1.15 -1.003834 0.12604
v -1.15 -1.044032 0.097455
v -1.15 -1.076012 0.059902
v -1.15 -1.097828 0.015663
v -1.15 -1.108153 -0.032569
v -1.15 -1.149429 -0.504358
v -1.15 -1.152011 -0.516416
v -1.15 -1.157465 -0.527475
v -1.15 -1.165459 -0.536864
v -1.15 -1.175509 -0.54401
v -1.15 -1.187002 -0.548479
v 0.75 0.908914 -0.0
v 1.15 0.908914 -0.0
v 0.75 0.908914 0.15
v 1.15 0.908914 0.15
v 1.15 0.957863 0.143918
v 1.15 0.921151 -0.001521
v 1.15 1.003834 0.12604
v 1.15 0.932644 -0.00599
v 1.15 1.044032 0.097455
v 1.15 0.942694 -0.013136
v 1.15 1.076012 0.059902
v 1.15 0.950688 -0.022525
v 1.15 1.097828 0.015663
v 1.15 0.956142 -0.033584
v 1.15 1.108153 -0.032569
v 1.15 0.958724 -0.045642
v 1.15 1.149429 -0.504358
v 1.15 1.0 -0.517431
v 1.15 1.152011 -0.516416
v 1.15 1.010325 -0.565663
v 1.15 1.157465 -0.527475
v 1.15 1.032141 -0.609902
v 1.15 1.165459 -0.536864
v 1.15 1.064121 -0.647455
v 1.15 1.175509 -0.54401
v 1.15 1.104319 -0.67604
v 1.15 1.187002 -0.548479
v 1.15 1.15029 -0.693918
v 1.15 1.199239 -0.55
v 1.15 1.199239 -0.7
v 1.15 1.45 -0.55
v 1.15 1.45 -0.7
v 0.75 1.199239 -0.55
v 0.75 1.45 -0.55
v 0.75 1.45 -0.7
v 0.75 1.199239 -0.7
v 0.75 1.0 -0.517431
v 0.75 1.010325 -0.565663
v 0.75 1.032141 -0.609902
v 0.75 1.064121 -0.647455
v 0.75 1.104319 -0.67604
v 0.75 1.15029 -0.693918
v 0.75 0.958724 -0.045642
v 0.75 0.921151 -0.001521
v 0.75 0.932644 -0.00599
v 0.75 0.942694 -0.013136
v 0.75 0.950688 -0.022525
v 0.75 0.956142 -0.033584
v 0.75 1.187002 -0.548479
v 0.75 1.175509 -0.54401
v 0.75 1.165459 -0.536864
v 0.75 1.157465 -0.527475
v 0.75 1.152011 -0.516416
v 0.75 1.149429 -0.504358
v 0.75 1.108153 -0.032569
v 0.75 1.097828 0.015663
v 0.75 1.076012 0.059902
v 0.75 1.044032 0.097455
v 0.75 1.003834 0.12604
v 0.75 0.957863 0.143918
v -1.15 0.908914 -0.0
v -0.75 0.908914 -0.0
v -1.15 0.908914 0.15
v -0.75 0.908914 0.15
v -0.75 0.957863 0.143918
v -0.75 0.921151 -0.001521
v -0.75 1.003834 0.12604
v -0.75 0.932644 -0.00599
v -0.75 1.044032 0.097455
v -0.75 0.942694 -0.013136
v -0.75 1.076012 0.059902
v -0.75 0.950688 -0.022525
v -0.75 1.097828 0.015663
v -0.75 0.956142 -0.033584
v -0.75 1.108153 -0.032569
v -0.75 0.958724 -0.045642
v -0.75 1.149429 -0.504358
v -0.75 1.0 -0.517431
v -0.75 1.152011 -0.516416
v -0.75 1.010325 -0.565663
v -0.75 1.157465 -0.527475
v -0.75 1.032141 -0.609902
v -0.75 1.165459 -0.536864
v -0.75 1.064121 -0.647455
v -0.75 1.175509 -0.54401
v -0.75 1.104319 -0.67604
v -0.75 1.187002 -0.548479
v -0.75 1.15029 -0.693918
v -0.75 1.199239 -0.55
v -0.75 1.199239 -0.7
v -0.75 1.45 -0.55
v -0.75 1.45 -0.7
v -1.15 1.199239 -0.55
v -1.15 1.45 -0.55
v -1.15 1.45 -0.7
v -1.15 1.199239 -0.7
v -1.15 1.0 -0.517431
v -1.15 1.010325 -0.565663
v -1.15 1.032141 -0.609902
v -1.15 1.064121 -0.647455
v -1.15 1.104319 -0.67604
v -1.15 1.15029 -0.693918
v -1.15 0.958724 -0.045642
v -1.15 0.921151 -0.001521
v -1.15 0.932644 -0.00599
v -1.15 0.942694 -0.013136
v -1.15 0.950688 -0.022525
v -1.15 0.956142 -0.033584
v -1.15 1.187002 -0.548479
v -1.15 1.175509 -0.54401
v -1.15 1.165459 -0.536864
v -1.15 1.157465 -0.527475
v -1.15 1.152011 -0.516416
v -1.15 1.149429 -0.504358
v -1.15 1.108153 -0.032569
v -1.15 1.097828 0.015663
v -1.15 1.076012 0.059902
v -1.15 1.044032 0.097455
v -1.15 1.003834 0.12604
v -1.15 0.957863 0.143918
v -0.808951 -0.442684 0.399
v -0.814445 -0.400951 0.399
newmtl 3
Ka 0.0 0.0 0.0
Kd 0.0 0.0 0.0
Ks 0.0 0.0 0.0
d 0.0
endmtl
v -0.830553 -0.362063 0.399
v -0.856178 -0.328668 0.399
v -0.889572 -0.303044 0.399
v -0.92846 -0.286936 0.399
v -0.970193 -0.281442 0.399
v -1.011925 -0.286936 0.399
v -1.050814 -0.303044 0.399
v -1.084208 -0.328668 0.399
v -1.109832 -0.362063 0.399
v -1.12594 -0.400951 0.399
v -1.131435 -0.442684 0.399
v -1.12594 -0.484416 0.399
v -1.109832 -0.523305 0.399
v -1.084208 -0.556699 0.399
v -1.050814 -0.582323 0.399
v -1.011925 -0.598431 0.399
v -0.970193 -0.603925 0.399
v -0.92846 -0.598431 0.399
v -0.889572 -0.582323 0.399
v -0.856178 -0.556699 0.399
v -0.830553 -0.523305 0.399
v -0.814445 -0.484416 0.399
v -0.970193 -0.442684 0.399
v -0.196655 0.05252 -0.649
v -0.235679 -0.04748 -0.649
v -0.221045 -0.04748 -0.649
v -0.210927 -0.019431 -0.649
v -0.169616 -0.019431 -0.649
v -0.160069 -0.04748 -0.649
v -0.145435 -0.04748 -0.649
v -0.18324 0.05252 -0.649
v -0.172989 -0.008455 -0.649
v -0.20643 -0.008455 -0.649
v -0.187909 0.033313 -0.649
v -0.188871 0.036781 -0.649
v -0.189509 0.040325 -0.649
v -0.189833 0.040325 -0.649
v -0.190486 0.036792 -0.649
v -0.191376 0.033313 -0.649
v -0.172989 -0.008455 -0.65
v -0.20643 -0.008455 -0.65
v -0.187909 0.033313 -0.65
v -0.188871 0.036781 -0.65
v -0.189509 0.040325 -0.65
v -0.189833 0.040325 -0.65
v -0.190486 0.036792 -0.65
v -0.191376 0.033313 -0.65
v -0.084822 -0.04748 -0.649
v -0.05763 -0.04748 -0.649
v -0.05763 0.05252 -0.649
v -0.085851 0.05252 -0.649
v -0.138118 0.003778 -0.649
v -0.137391 0.013188 -0.649
v -0.134706 0.02304 -0.649
v -0.130058 0.03164 -0.649
v -0.122987 0.039482 -0.649
v -0.122882 0.039573 -0.649
v -0.111998 0.046868 -0.649
v -0.100298 0.050976 -0.649
v -0.097195 -0.046399 -0.649
v -0.108718 -0.042965 -0.649
v -0.119159 -0.036897 -0.649
v -0.12739 -0.029016 -0.649
v -0.133125 -0.020072 -0.649
v -0.136715 -0.009605 -0.649
v -0.118045 0.027522 -0.649
v -0.113188 0.032679 -0.649
v -0.105884 0.037398 -0.649
v -0.097629 0.040287 -0.649
v -0.085793 0.041545 -0.649
v -0.071045 0.041545 -0.649
v -0.071045 -0.036504 -0.649
v -0.085241 -0.036504 -0.649
v -0.095791 -0.035522 -0.649
v -0.104206 -0.032895 -0.649
v -0.111026 -0.028846 -0.649
v -0.116635 -0.023306 -0.649
v -0.120852 -0.016411 -0.649
v -0.123785 -0.007011 -0.649
v -0.124703 0.003492 -0.649
v -0.123854 0.013445 -0.649
v -0.121519 0.021354 -0.649
v -0.085793 0.041545 -0.65
v -0.071045 0.041545 -0.65
v -0.097629 0.040287 -0.65
v -0.105884 0.037398 -0.65
v -0.113188 0.032679 -0.65
v -0.118045 0.027522 -0.65
v -0.121519 0.021354 -0.65
v -0.123854 0.013445 -0.65
v -0.124703 0.003492 -0.65
v -0.123785 -0.007011 -0.65
v -0.120852 -0.016411 -0.65
v -0.116635 -0.023306 -0.65
v -0.111026 -0.028846 -0.65
v -0.104206 -0.032895 -0.65
v -0.095791 -0.035522 -0.65
v -0.085241 -0.036504 -0.65
v -0.071045 -0.036504 -0.65
v -0.038118 -0.036504 -0.649
v -0.038118 -0.04748 -0.649
v 0.01554 -0.04748 -0.649
v 0.01554 0.05252 -0.649
v -0.035679 0.05252 -0.649
v -0.035679 0.041545 -0.649
v 0.002126 0.041545 -0.649
v 0.002126 0.008618 -0.649
v -0.03324 0.008618 -0.649
v -0.03324 -0.002358 -0.649
v 0.002126 -0.002358 -0.649
v 0.002126 -0.036504 -0.649
v 0.035053 -0.031321 -0.649
v 0.035053 -0.042297 -0.649
v 0.045712 -0.046673 -0.649
v 0.062568 -0.048699 -0.649
v 0.059834 -0.048652 -0.649
v 0.074891 -0.047421 -0.649
v 0.084584 -0.044085 -0.649
v 0.092628 -0.038948 -0.649
v 0.100139 -0.031041 -0.649
v 0.105466 -0.021532 -0.649
v 0.108476 -0.010947 -0.649
v 0.109443 6.34E-4 -0.649
v 0.058585 0.05374 -0.649
v 0.068629 0.05292 -0.649
v 0.079777 0.049681 -0.649
v 0.089276 0.044214 -0.649
v 0.098304 0.035531 -0.649
v 0.104165 0.026182 -0.649
v 0.108004 0.014851 -0.649
v 0.035053 0.049777 -0.649
v 0.046614 0.052914 -0.649
v 0.035053 0.036362 -0.649
v 0.058471 0.042764 -0.649
v 0.046317 0.041185 -0.649
v 0.096028 0.001453 -0.649
v 0.095551 0.009234 -0.649
v 0.092886 0.019939 -0.649
v 0.088763 0.02766 -0.649
v 0.082724 0.034327 -0.649
v 0.075803 0.038957 -0.649
v 0.068318 0.041659 -0.649
v 0.06072 -0.037723 -0.649
v 0.070047 -0.036677 -0.649
v 0.077333 -0.033995 -0.649
v 0.08347 -0.029858 -0.649
v 0.088163 -0.024908 -0.649
v 0.092299 -0.017974 -0.649
v 0.095016 -0.009372 -0.649
v 0.036845 -0.032314 -0.649
v 0.047445 -0.03625 -0.649
v 0.117979 -0.036504 -0.649
v 0.117979 -0.04748 -0.649
v 0.169199 -0.04748 -0.649
v 0.169199 0.05252 -0.649
v 0.155784 0.05252 -0.649
v 0.155784 -0.036504 -0.649
v -1.406048 -0.720792 -0.604265
v -1.448303 -0.763047 -0.0
v -1.446208 -0.769228 -0.0
v -1.406039 -0.720814 -0.604266
v -1.443326 -0.77508 -0.0
v -1.401037 -0.732791 -0.604754
v -1.439704 -0.780503 -0.0
v -1.401025 -0.732807 -0.604754
v -1.435406 -0.785406 -0.0
v -1.393106 -0.743106 -0.604921
v -1.430503 -0.789704 -0.0
v -1.382807 -0.751025 -0.604754
v -1.42508 -0.793325 -0.0
v -1.382791 -0.751037 -0.604754
v -1.419228 -0.796208 -0.0
v -1.370814 -0.756039 -0.604266
v -1.413047 -0.798303 -0.0
v -1.370792 -0.756048 -0.604265
v -1.388274 -0.77353 0.354265
v -1.388296 -0.773521 0.354266
v -1.400273 -0.768519 0.354754
v -1.400289 -0.768506 0.354754
v -1.410587 -0.760587 0.354921
v -1.418507 -0.750289 0.354754
v -1.418519 -0.750273 0.354754
v -1.423521 -0.738296 0.354266
v -1.42353 -0.738274 0.354265
v -1.370299 -0.707922 -0.648434
v -1.369948 -0.711144 -0.648425
v -1.357922 -0.731901 -0.643854
v -1.357922 -0.732039 -0.643799
v -1.364164 -0.731217 -0.643799
v -1.357922 -0.742005 -0.636545
v -1.357922 -0.742186 -0.636414
v -1.36679 -0.741019 -0.636414
v -1.368858 -0.748735 -0.626734
v -1.370236 -0.753879 -0.615371
v -1.381711 -0.749126 -0.615371
v -1.405501 -0.707922 -0.615371
v -1.40388 -0.720236 -0.615371
v -1.357922 -0.755501 -0.615371
v -1.357922 -0.755343 -0.615708
v -1.357922 -0.750174 -0.626734
v -1.357922 -0.749985 -0.626964
v -1.405343 -0.707922 -0.615708
v -1.398735 -0.718858 -0.626734
v -1.379048 -0.744514 -0.626734
v -1.391565 -0.741565 -0.615371
v -1.400174 -0.707922 -0.626734
v -1.399985 -0.707922 -0.626964
v -1.391019 -0.71679 -0.636414
v -1.375054 -0.737595 -0.636414
v -1.387799 -0.737799 -0.626734
v -1.392186 -0.707922 -0.636414
v -1.392005 -0.707922 -0.636545
v -1.381217 -0.714164 -0.643799
v -1.38215 -0.73215 -0.636414
v -1.36998 -0.728808 -0.643799
v -1.361144 -0.719948 -0.648425
v -1.399126 -0.731711 -0.615371
v -1.394513 -0.729048 -0.626734
v -1.387596 -0.725054 -0.636414
v -1.378808 -0.71998 -0.643799
v -1.368705 -0.714147 -0.648425
v -1.357922 -0.720299 -0.648434
v -1.357922 -0.720373 -0.648425
v -1.374975 -0.724975 -0.643799
v -1.364147 -0.718705 -0.648425
v -1.366726 -0.716726 -0.648425
v -1.382039 -0.707922 -0.643799
v -1.381901 -0.707922 -0.643854
v -1.370373 -0.707922 -0.648425
v -1.375404 -0.767466 0.376964
v -1.375404 -0.759668 0.386414
v -1.384272 -0.7585 0.386414
v -1.381646 -0.748699 0.393799
v -1.378626 -0.73743 0.398425
v -1.381629 -0.736186 0.398425
v -1.386186 -0.731629 0.398425
v -1.384208 -0.734208 0.398425
v -1.38743 -0.728626 0.398425
v -1.375404 -0.73778 0.398434
v -1.387718 -0.771361 0.365371
v -1.399193 -0.766608 0.365371
v -1.409047 -0.759047 0.365371
v -1.416608 -0.749193 0.365371
v -1.421361 -0.737718 0.365371
v -1.422982 -0.725404 0.365371
v -1.387781 -0.725404 0.398434
v -1.375404 -0.759487 0.386545
v -1.375404 -0.749521 0.393799
v -1.375404 -0.749382 0.393854
v -1.375404 -0.737854 0.398425
v -1.387462 -0.74629 0.393799
v -1.392457 -0.742457 0.393799
v -1.39629 -0.737462 0.393799
v -1.398699 -0.731646 0.393799
v -1.387854 -0.725404 0.398425
v -1.399382 -0.725404 0.393854
v -1.399521 -0.725404 0.393799
v -1.409487 -0.725404 0.386545
v -1.392536 -0.755077 0.386414
v -1.399632 -0.749632 0.386414
v -1.405077 -0.742536 0.386414
v -1.4085 -0.734272 0.386414
v -1.375404 -0.772824 0.365708
v -1.375404 -0.767656 0.376734
v -1.386339 -0.766216 0.376734
v -1.39653 -0.761995 0.376734
v -1.405281 -0.755281 0.376734
v -1.411995 -0.74653 0.376734
v -1.416216 -0.736339 0.376734
v -1.375404 -0.772982 0.365371
v -1.409668 -0.725404 0.386414
v -1.417466 -0.725404 0.376964
v -1.417656 -0.725404 0.376734
v -1.422824 -0.725404 0.365708
v -1.370792 0.756048 -0.604265
v -1.413047 0.798303 0.0
v -1.419228 0.796208 0.0
v -1.370814 0.756039 -0.604266
v -1.42508 0.793325 0.0
v -1.382791 0.751037 -0.604754
v -1.430503 0.789704 0.0
v -1.382807 0.751025 -0.604754
v -1.435406 0.785406 0.0
v -1.393106 0.743106 -0.604921
v -1.439704 0.780503 0.0
v -1.401025 0.732807 -0.604754
v -1.443326 0.77508 0.0
v -1.401037 0.732791 -0.604754
v -1.446208 0.769228 0.0
v -1.406039 0.720814 -0.604266
v -1.448303 0.763047 0.0
v -1.406048 0.720792 -0.604265
v -1.405501 0.707922 -0.615371
v -1.405343 0.707922 -0.615708
v -1.400174 0.707922 -0.626734
v -1.399985 0.707922 -0.626964
v -1.392186 0.707922 -0.636414
v -1.392005 0.707922 -0.636545
v -1.382039 0.707922 -0.643799
v -1.381901 0.707922 -0.643854
v -1.370373 0.707922 -0.648425
v -1.370299 0.707922 -0.648434
v 1.357922 -0.720299 -0.648434
v 1.357922 -0.720373 -0.648425
v 1.357922 -0.731901 -0.643854
v 1.357922 -0.732039 -0.643799
v 1.357922 -0.742005 -0.636545
v 1.357922 -0.742186 -0.636414
v 1.357922 -0.749985 -0.626964
v 1.357922 -0.750174 -0.626734
v 1.357922 -0.755343 -0.615708
v 1.357922 -0.755501 -0.615371
v 1.370792 -0.756048 -0.604265
v 1.413047 -0.798303 0.0
v 1.419228 -0.796208 0.0
v 1.370814 -0.756039 -0.604266
v 1.42508 -0.793325 0.0
v 1.382791 -0.751037 -0.604754
v 1.430503 -0.789704 0.0
v 1.382807 -0.751025 -0.604754
v 1.435406 -0.785406 0.0
v 1.393106 -0.743106 -0.604921
v 1.439704 -0.780503 0.0
v 1.401025 -0.732807 -0.604754
v 1.443326 -0.77508 0.0
v 1.401037 -0.732791 -0.604754
v 1.446208 -0.769228 0.0
v 1.406039 -0.720814 -0.604266
v 1.448303 -0.763047 0.0
v 1.406048 -0.720792 -0.604265
v 1.42353 -0.738274 0.354265
v 1.423521 -0.738296 0.354266
v 1.418519 -0.750273 0.354754
v 1.418507 -0.750289 0.354754
v 1.410587 -0.760587 0.354921
v 1.400289 -0.768506 0.354754
v 1.400273 -0.768519 0.354754
v 1.388296 -0.773521 0.354266
v 1.388274 -0.77353 0.354265
v 1.375404 -0.772982 0.365371
v 1.375404 -0.772824 0.365708
v 1.375404 -0.767656 0.376734
v 1.375404 -0.767466 0.376964
v 1.375404 -0.759668 0.386414
v 1.375404 -0.759487 0.386545
v 1.375404 -0.749521 0.393799
v 1.375404 -0.749382 0.393854
v 1.375404 -0.737854 0.398425
v 1.375404 -0.73778 0.398434
v -1.422982 0.725404 0.365371
v -1.422824 0.725404 0.365708
v -1.417656 0.725404 0.376734
v -1.417466 0.725404 0.376964
v -1.409668 0.725404 0.386414
v -1.409487 0.725404 0.386545
v -1.399521 0.725404 0.393799
v -1.399382 0.725404 0.393854
v -1.387854 0.725404 0.398425
v -1.387781 0.725404 0.398434
v -1.42353 0.738274 0.354265
v -1.423521 0.738296 0.354266
v -1.418519 0.750273 0.354754
v -1.418507 0.750289 0.354754
v -1.410587 0.760587 0.354921
v -1.400289 0.768506 0.354754
v -1.400273 0.768519 0.354754
v -1.388296 0.773521 0.354266
v -1.388274 0.77353 0.354265
v -1.357922 0.720299 -0.648434
v -1.361144 0.719948 -0.648425
v -1.381217 0.714164 -0.643799
v -1.391019 0.71679 -0.636414
v -1.398735 0.718858 -0.626734
v -1.40388 0.720236 -0.615371
v -1.399126 0.731711 -0.615371
v -1.357922 0.755501 -0.615371
v -1.370236 0.753879 -0.615371
v -1.357922 0.755343 -0.615708
v -1.368858 0.748735 -0.626734
v -1.394513 0.729048 -0.626734
v -1.391565 0.741565 -0.615371
v -1.357922 0.750174 -0.626734
v -1.357922 0.749985 -0.626964
v -1.36679 0.741019 -0.636414
v -1.387596 0.725054 -0.636414
v -1.387799 0.737799 -0.626734
v -1.357922 0.742186 -0.636414
v -1.357922 0.742005 -0.636545
v -1.364164 0.731217 -0.643799
v -1.38215 0.73215 -0.636414
v -1.378808 0.71998 -0.643799
v -1.369948 0.711144 -0.648425
v -1.381711 0.749126 -0.615371
v -1.379048 0.744514 -0.626734
v -1.375054 0.737595 -0.636414
v -1.36998 0.728808 -0.643799
v -1.364147 0.718705 -0.648425
v -1.374975 0.724975 -0.643799
v -1.368705 0.714147 -0.648425
v -1.366726 0.716726 -0.648425
v -1.357922 0.732039 -0.643799
v -1.357922 0.731901 -0.643854
v -1.357922 0.720373 -0.648425
v 1.361144 -0.719948 -0.648425
v 1.381901 -0.707922 -0.643854
v 1.382039 -0.707922 -0.643799
v 1.381217 -0.714164 -0.643799
v 1.392005 -0.707922 -0.636545
v 1.392186 -0.707922 -0.636414
v 1.391019 -0.71679 -0.636414
v 1.398735 -0.718858 -0.626734
v 1.40388 -0.720236 -0.615371
v 1.399126 -0.731711 -0.615371
v 1.370236 -0.753879 -0.615371
v 1.405501 -0.707922 -0.615371
v 1.405343 -0.707922 -0.615708
v 1.400174 -0.707922 -0.626734
v 1.399985 -0.707922 -0.626964
v 1.368858 -0.748735 -0.626734
v 1.394513 -0.729048 -0.626734
v 1.391565 -0.741565 -0.615371
v 1.36679 -0.741019 -0.636414
v 1.387596 -0.725054 -0.636414
v 1.387799 -0.737799 -0.626734
v 1.364164 -0.731217 -0.643799
v 1.38215 -0.73215 -0.636414
v 1.378808 -0.71998 -0.643799
v 1.369948 -0.711144 -0.648425
v 1.381711 -0.749126 -0.615371
v 1.379048 -0.744514 -0.626734
v 1.375054 -0.737595 -0.636414
v 1.36998 -0.728808 -0.643799
v 1.364147 -0.718705 -0.648425
v 1.370299 -0.707922 -0.648434
v 1.370373 -0.707922 -0.648425
v 1.374975 -0.724975 -0.643799
v 1.368705 -0.714147 -0.648425
v 1.366726 -0.716726 -0.648425
v 1.417466 -0.725404 0.376964
v 1.409668 -0.725404 0.386414
v 1.4085 -0.734272 0.386414
v 1.398699 -0.731646 0.393799
v 1.38743 -0.728626 0.398425
v 1.386186 -0.731629 0.398425
v 1.381629 -0.736186 0.398425
v 1.384208 -0.734208 0.398425
v 1.378626 -0.73743 0.398425
v 1.387781 -0.725404 0.398434
v 1.421361 -0.737718 0.365371
v 1.416608 -0.749193 0.365371
v 1.409047 -0.759047 0.365371
v 1.399193 -0.766608 0.365371
v 1.387718 -0.771361 0.365371
v 1.409487 -0.725404 0.386545
v 1.399521 -0.725404 0.393799
v 1.399382 -0.725404 0.393854
v 1.387854 -0.725404 0.398425
v 1.39629 -0.737462 0.393799
v 1.392457 -0.742457 0.393799
v 1.387462 -0.74629 0.393799
v 1.381646 -0.748699 0.393799
v 1.405077 -0.742536 0.386414
v 1.399632 -0.749632 0.386414
v 1.392536 -0.755077 0.386414
v 1.384272 -0.7585 0.386414
v 1.422824 -0.725404 0.365708
v 1.417656 -0.725404 0.376734
v 1.416216 -0.736339 0.376734
v 1.411995 -0.74653 0.376734
v 1.405281 -0.755281 0.376734
v 1.39653 -0.761995 0.376734
v 1.386339 -0.766216 0.376734
v 1.422982 -0.725404 0.365371
v -1.4085 0.734272 0.386414
v -1.398699 0.731646 0.393799
v -1.38743 0.728626 0.398425
v -1.386186 0.731629 0.398425
v -1.381629 0.736186 0.398425
v -1.384208 0.734208 0.398425
v -1.378626 0.73743 0.398425
v -1.421361 0.737718 0.365371
v -1.416608 0.749193 0.365371
v -1.409047 0.759047 0.365371
v -1.399193 0.766608 0.365371
v -1.387718 0.771361 0.365371
v -1.375404 0.772982 0.365371
v -1.375404 0.73778 0.398434
v -1.39629 0.737462 0.393799
v -1.392457 0.742457 0.393799
v -1.387462 0.74629 0.393799
v -1.381646 0.748699 0.393799
v -1.375404 0.737854 0.398425
v -1.375404 0.749382 0.393854
v -1.375404 0.749521 0.393799
v -1.375404 0.759487 0.386545
v -1.405077 0.742536 0.386414
v -1.399632 0.749632 0.386414
v -1.392536 0.755077 0.386414
v -1.384272 0.7585 0.386414
v -1.416216 0.736339 0.376734
v -1.411995 0.74653 0.376734
v -1.405281 0.755281 0.376734
v -1.39653 0.761995 0.376734
v -1.386339 0.766216 0.376734
v -1.375404 0.759668 0.386414
v -1.375404 0.767466 0.376964
v -1.375404 0.767656 0.376734
v -1.375404 0.772824 0.365708
v 1.357922 0.755501 -0.615371
v 1.357922 0.755343 -0.615708
v 1.357922 0.750174 -0.626734
v 1.357922 0.749985 -0.626964
v 1.357922 0.742186 -0.636414
v 1.357922 0.742005 -0.636545
v 1.357922 0.732039 -0.643799
v 1.357922 0.731901 -0.643854
v 1.357922 0.720373 -0.648425
v 1.357922 0.720299 -0.648434
v 1.370299 0.707922 -0.648434
v 1.370373 0.707922 -0.648425
v 1.381901 0.707922 -0.643854
v 1.382039 0.707922 -0.643799
v 1.392005 0.707922 -0.636545
v 1.392186 0.707922 -0.636414
v 1.399985 0.707922 -0.626964
v 1.400174 0.707922 -0.626734
v 1.405343 0.707922 -0.615708
v 1.405501 0.707922 -0.615371
v 1.422982 0.725404 0.365371
v 1.422824 0.725404 0.365708
v 1.417656 0.725404 0.376734
v 1.417466 0.725404 0.376964
v 1.409668 0.725404 0.386414
v 1.409487 0.725404 0.386545
v 1.399521 0.725404 0.393799
v 1.399382 0.725404 0.393854
v 1.387854 0.725404 0.398425
v 1.387781 0.725404 0.398434
v 1.375404 0.772982 0.365371
v 1.375404 0.772824 0.365708
v 1.375404 0.767656 0.376734
v 1.375404 0.767466 0.376964
v 1.375404 0.759668 0.386414
v 1.375404 0.759487 0.386545
v 1.375404 0.749521 0.393799
v 1.375404 0.749382 0.393854
v 1.375404 0.737854 0.398425
v 1.375404 0.73778 0.398434
v 1.369948 0.711144 -0.648425
v 1.364164 0.731217 -0.643799
v 1.36679 0.741019 -0.636414
v 1.368858 0.748735 -0.626734
v 1.370236 0.753879 -0.615371
v 1.381711 0.749126 -0.615371
v 1.406048 0.720792 -0.604265
v 1.401037 0.732791 -0.604754
v 1.406039 0.720814 -0.604266
v 1.40388 0.720236 -0.615371
v 1.370792 0.756048 -0.604265
v 1.370814 0.756039 -0.604266
v 1.382791 0.751037 -0.604754
v 1.382807 0.751025 -0.604754
v 1.393106 0.743106 -0.604921
v 1.398735 0.718858 -0.626734
v 1.379048 0.744514 -0.626734
v 1.391565 0.741565 -0.615371
v 1.391019 0.71679 -0.636414
v 1.375054 0.737595 -0.636414
v 1.387799 0.737799 -0.626734
v 1.381217 0.714164 -0.643799
v 1.38215 0.73215 -0.636414
v 1.36998 0.728808 -0.643799
v 1.361144 0.719948 -0.648425
v 1.401025 0.732807 -0.604754
v 1.399126 0.731711 -0.615371
v 1.394513 0.729048 -0.626734
v 1.387596 0.725054 -0.636414
v 1.378808 0.71998 -0.643799
v 1.368705 0.714147 -0.648425
v 1.374975 0.724975 -0.643799
v 1.364147 0.718705 -0.648425
v 1.366726 0.716726 -0.648425
v 1.384272 0.7585 0.386414
v 1.381646 0.748699 0.393799
v 1.378626 0.73743 0.398425
v 1.381629 0.736186 0.398425
v 1.386186 0.731629 0.398425
v 1.384208 0.734208 0.398425
v 1.38743 0.728626 0.398425
v 1.387718 0.771361 0.365371
v 1.388296 0.773521 0.354266
v 1.388274 0.77353 0.354265
v 1.400273 0.768519 0.354754
v 1.399193 0.766608 0.365371
v 1.400289 0.768506 0.354754
v 1.409047 0.759047 0.365371
v 1.410587 0.760587 0.354921
v 1.416608 0.749193 0.365371
v 1.418507 0.750289 0.354754
v 1.418519 0.750273 0.354754
v 1.421361 0.737718 0.365371
v 1.423521 0.738296 0.354266
v 1.42353 0.738274 0.354265
v 1.387462 0.74629 0.393799
v 1.392457 0.742457 0.393799
v 1.39629 0.737462 0.393799
v 1.398699 0.731646 0.393799
v 1.392536 0.755077 0.386414
v 1.399632 0.749632 0.386414
v 1.405077 0.742536 0.386414
v 1.4085 0.734272 0.386414
v 1.386339 0.766216 0.376734
v 1.39653 0.761995 0.376734
v 1.405281 0.755281 0.376734
v 1.411995 0.74653 0.376734
v 1.416216 0.736339 0.376734
v 1.448303 0.763047 0.0
v 1.446208 0.769228 0.0
v 1.443326 0.77508 0.0
v 1.439704 0.780503 0.0
v 1.435406 0.785406 0.0
v 1.430503 0.789704 0.0
v 1.42508 0.793325 0.0
v 1.419228 0.796208 0.0
v 1.413047 0.798303 0.0
usemtl 1
f 1// 2// 3//
f 3// 2// 4//
f 5// 6// 7//
f 8// 4// 9//
f 9// 4// 10//
f 11// 12// 13//
f 13// 12// 1//
f 13// 1// 14//
f 15// 16// 17//
f 17// 16// 18//
f 7// 14// 5//
f 5// 14// 1//
f 5// 1// 19//
f 19// 1// 20//
f 19// 20// 10//
f 21// 22// 23//
f 24// 25// 26//
f 26// 25// 27//
f 26// 27// 28//
f 29// 30// 26//
f 26// 30// 31//
f 32// 33// 34//
f 34// 33// 35//
f 31// 36// 26//
f 26// 36// 35//
f 26// 35// 37//
f 37// 35// 33//
f 28// 38// 26//
f 26// 38// 39//
f 26// 39// 29//
f 22// 40// 23//
f 23// 40// 20//
f 23// 20// 41//
f 41// 20// 42//
f 41// 42// 43//
f 43// 42// 44//
f 15// 45// 16//
f 16// 45// 46//
f 16// 46// 47//
f 47// 46// 48//
f 47// 48// 49//
f 48// 50// 49//
f 49// 50// 51//
f 49// 51// 23//
f 23// 51// 52//
f 23// 52// 21//
f 40// 53// 20//
f 20// 53// 54//
f 20// 54// 55//
f 55// 56// 20//
f 20// 56// 57//
f 20// 57// 10//
f 10// 57// 58//
f 10// 58// 9//
f 9// 58// 59//
f 9// 59// 26//
f 26// 59// 60//
f 26// 60// 24//
f 16// 43// 18//
f 18// 43// 44//
f 18// 44// 61//
f 61// 44// 62//
f 61// 62// 63//
f 63// 62// 64//
f 63// 64// 65//
f 66// 67// 64//
f 64// 67// 3//
f 64// 3// 65//
f 65// 3// 4//
f 65// 4// 68//
f 68// 4// 8//
f 69// 70// 3//
f 71// 72// 70//
f 70// 72// 73//
f 70// 73// 74//
f 20// 75// 76//
f 76// 75// 77//
f 76// 77// 67//
f 67// 77// 78//
f 67// 78// 3//
f 3// 78// 79//
f 3// 79// 69//
f 69// 79// 80//
f 69// 80// 81//
f 1// 3// 20//
f 20// 3// 82//
f 20// 82// 83//
f 84// 85// 75//
f 75// 85// 86//
f 83// 87// 20//
f 20// 87// 88//
f 20// 88// 75//
f 75// 88// 89//
f 75// 89// 84//
f 74// 90// 70//
f 70// 90// 91//
f 70// 91// 3//
f 3// 91// 92//
f 3// 92// 82//
f 86// 93// 75//
f 75// 93// 94//
f 75// 94// 70//
f 70// 94// 95//
f 70// 95// 71//
f 96// 97// 98//
f 98// 99// 96//
f 96// 99// 100//
f 96// 100// 101//
f 102// 103// 104//
f 104// 103// 101//
f 104// 101// 105//
f 105// 101// 100//
f 105// 100// 106//
f 106// 100// 107//
f 108// 109// 110//
f 111// 112// 113//
f 113// 112// 114//
f 110// 115// 108//
f 108// 115// 113//
f 108// 113// 116//
f 116// 113// 114//
f 116// 114// 117//
f 118// 119// 120//
f 120// 119// 116//
f 120// 116// 121//
f 121// 116// 117//
f 121// 117// 122//
f 122// 117// 123//
f 124// 125// 126//
f 126// 125// 127//
f 128// 119// 118//
f 118// 122// 128//
f 128// 122// 123//
f 128// 123// 129//
f 129// 123// 112//
f 112// 111// 129//
f 129// 111// 110//
f 129// 110// 109//
f 130// 131// 132//
f 132// 131// 133//
f 98// 97// 134//
f 103// 102// 135//
f 135// 102// 106//
f 135// 106// 134//
f 134// 106// 107//
f 134// 107// 98//
f 136// 137// 124//
f 124// 137// 125//
f 138// 139// 130//
f 130// 139// 131//
f 140// 141// 142//
f 142// 141// 143//
f 142// 143// 144//
f 144// 145// 142//
f 142// 145// 146//
f 142// 146// 147//
f 147// 146// 148//
f 148// 149// 147//
f 147// 149// 150//
f 147// 150// 151//
f 152// 153// 154//
f 154// 153// 155//
f 154// 155// 156//
f 156// 157// 154//
f 154// 157// 158//
f 154// 158// 159//
f 159// 158// 160//
f 159// 160// 161//
f 161// 162// 159//
f 159// 162// 163//
f 159// 163// 142//
f 142// 163// 164//
f 142// 164// 140//
f 151// 165// 147//
f 147// 165// 166//
f 147// 166// 154//
f 154// 166// 167//
f 154// 167// 152//
usemtl 2
f 168// 169// 123//
f 123// 169// 112//
f 114// 170// 117//
f 117// 170// 171//
f 172// 173// 174//
f 174// 173// 175//
f 174// 175// 176//
f 176// 175// 177//
f 176// 177// 178//
f 178// 177// 179//
f 178// 179// 180//
f 180// 179// 181//
f 180// 181// 182//
f 182// 181// 183//
f 182// 183// 184//
f 184// 183// 185//
f 184// 185// 186//
f 186// 185// 187//
f 186// 187// 188//
f 188// 187// 189//
f 188// 189// 190//
f 190// 189// 191//
f 190// 191// 192//
f 192// 191// 193//
f 192// 193// 194//
f 194// 193// 195//
f 194// 195// 196//
f 196// 195// 197//
f 196// 197// 198//
f 198// 197// 199//
f 198// 199// 171//
f 171// 199// 168//
f 171// 168// 117//
f 117// 168// 123//
f 114// 112// 170//
f 170// 112// 169//
f 170// 169// 200//
f 200// 169// 201//
f 200// 201// 202//
f 202// 201// 203//
f 202// 203// 204//
f 204// 203// 205//
f 204// 205// 206//
f 206// 205// 207//
f 206// 207// 208//
f 208// 207// 209//
f 208// 209// 210//
f 210// 209// 211//
f 210// 211// 212//
f 212// 211// 213//
f 212// 213// 214//
f 214// 213// 215//
f 214// 215// 216//
f 216// 215// 217//
f 216// 217// 218//
f 218// 217// 219//
f 218// 219// 220//
f 220// 219// 221//
f 220// 221// 222//
f 222// 221// 223//
f 222// 223// 224//
f 224// 223// 225//
f 224// 225// 226//
f 226// 225// 227//
f 172// 174// 226//
f 226// 174// 224//
f 173// 172// 227//
f 227// 172// 226//
f 175// 173// 225//
f 225// 173// 227//
f 175// 225// 223//
f 175// 223// 177//
f 177// 223// 221//
f 177// 221// 179//
f 179// 221// 219//
f 179// 219// 181//
f 181// 219// 217//
f 181// 217// 183//
f 183// 217// 215//
f 183// 215// 185//
f 185// 215// 213//
f 185// 213// 187//
f 189// 187// 211//
f 211// 187// 213//
f 189// 211// 191//
f 191// 211// 209//
f 191// 209// 193//
f 193// 209// 207//
f 193// 207// 195//
f 195// 207// 205//
f 195// 205// 197//
f 197// 205// 203//
f 197// 203// 199//
f 199// 203// 201//
f 199// 201// 168//
f 168// 201// 169//
f 171// 170// 200//
f 171// 200// 198//
f 198// 200// 202//
f 198// 202// 196//
f 196// 202// 204//
f 196// 204// 194//
f 194// 204// 206//
f 194// 206// 192//
f 192// 206// 208//
f 192// 208// 190//
f 190// 208// 210//
f 190// 210// 188//
f 186// 188// 212//
f 212// 188// 210//
f 186// 212// 184//
f 184// 212// 214//
f 184// 214// 182//
f 182// 214// 216//
f 182// 216// 180//
f 180// 216// 218//
f 180// 218// 178//
f 178// 218// 220//
f 178// 220// 176//
f 176// 220// 222//
f 176// 222// 174//
f 174// 222// 224//
f 228// 229// 118//
f 118// 229// 122//
f 121// 230// 120//
f 120// 230// 231//
f 232// 233// 234//
f 234// 233// 235//
f 234// 235// 236//
f 236// 235// 237//
f 236// 237// 238//
f 238// 237// 239//
f 238// 239// 240//
f 240// 239// 241//
f 240// 241// 242//
f 242// 241// 243//
f 242// 243// 244//
f 244// 243// 245//
f 244// 245// 246//
f 246// 245// 247//
f 246// 247// 248//
f 248// 247// 249//
f 248// 249// 250//
f 250// 249// 251//
f 250// 251// 252//
f 252// 251// 253//
f 252// 253// 254//
f 254// 253// 255//
f 254// 255// 256//
f 256// 255// 257//
f 256// 257// 258//
f 258// 257// 259//
f 258// 259// 231//
f 231// 259// 228//
f 231// 228// 120//
f 120// 228// 118//
f 232// 234// 260//
f 260// 234// 261//
f 233// 232// 262//
f 262// 232// 260//
f 235// 233// 263//
f 263// 233// 262//
f 235// 263// 264//
f 235// 264// 237//
f 237// 264// 265//
f 237// 265// 239//
f 239// 265// 266//
f 239// 266// 241//
f 241// 266// 267//
f 241// 267// 243//
f 243// 267// 268//
f 243// 268// 245//
f 245// 268// 269//
f 245// 269// 247//
f 249// 247// 270//
f 270// 247// 269//
f 249// 270// 251//
f 251// 270// 271//
f 251// 271// 253//
f 253// 271// 272//
f 253// 272// 255//
f 255// 272// 273//
f 255// 273// 257//
f 257// 273// 274//
f 257// 274// 259//
f 259// 274// 275//
f 259// 275// 228//
f 228// 275// 229//
f 121// 122// 230//
f 230// 122// 229//
f 230// 229// 276//
f 276// 229// 275//
f 276// 275// 277//
f 277// 275// 274//
f 277// 274// 278//
f 278// 274// 273//
f 278// 273// 279//
f 279// 273// 272//
f 279// 272// 280//
f 280// 272// 271//
f 280// 271// 281//
f 281// 271// 270//
f 281// 270// 282//
f 282// 270// 269//
f 282// 269// 283//
f 283// 269// 268//
f 283// 268// 284//
f 284// 268// 267//
f 284// 267// 285//
f 285// 267// 266//
f 285// 266// 286//
f 286// 266// 265//
f 286// 265// 287//
f 287// 265// 264//
f 287// 264// 261//
f 261// 264// 263//
f 261// 263// 260//
f 260// 263// 262//
f 231// 230// 276//
f 231// 276// 258//
f 258// 276// 277//
f 258// 277// 256//
f 256// 277// 278//
f 256// 278// 254//
f 254// 278// 279//
f 254// 279// 252//
f 252// 279// 280//
f 252// 280// 250//
f 250// 280// 281//
f 250// 281// 248//
f 246// 248// 282//
f 282// 248// 281//
f 246// 282// 244//
f 244// 282// 283//
f 244// 283// 242//
f 242// 283// 284//
f 242// 284// 240//
f 240// 284// 285//
f 240// 285// 238//
f 238// 285// 286//
f 238// 286// 236//
f 236// 286// 287//
f 236// 287// 234//
f 234// 287// 261//
f 288// 289// 111//
f 111// 289// 110//
f 115// 290// 113//
f 113// 290// 291//
f 292// 293// 294//
f 294// 293// 295//
f 294// 295// 296//
f 296// 295// 297//
f 296// 297// 298//
f 298// 297// 299//
f 298// 299// 300//
f 300// 299// 301//
f 300// 301// 302//
f 302// 301// 303//
f 302// 303// 304//
f 304// 303// 305//
f 304// 305// 306//
f 306// 305// 307//
f 306// 307// 308//
f 308// 307// 309//
f 308// 309// 310//
f 310// 309// 311//
f 310// 311// 312//
f 312// 311// 313//
f 312// 313// 314//
f 314// 313// 315//
f 314// 315// 316//
f 316// 315// 317//
f 316// 317// 318//
f 318// 317// 319//
f 318// 319// 291//
f 291// 319// 288//
f 291// 288// 113//
f 113// 288// 111//
f 292// 294// 320//
f 320// 294// 321//
f 293// 292// 322//
f 322// 292// 320//
f 295// 293// 323//
f 323// 293// 322//
f 295// 323// 324//
f 295// 324// 297//
f 297// 324// 325//
f 297// 325// 299//
f 299// 325// 326//
f 299// 326// 301//
f 301// 326// 327//
f 301// 327// 303//
f 303// 327// 328//
f 303// 328// 305//
f 305// 328// 329//
f 305// 329// 307//
f 309// 307// 330//
f 330// 307// 329//
f 309// 330// 311//
f 311// 330// 331//
f 311// 331// 313//
f 313// 331// 332//
f 313// 332// 315//
f 315// 332// 333//
f 315// 333// 317//
f 317// 333// 334//
f 317// 334// 319//
f 319// 334// 335//
f 319// 335// 288//
f 288// 335// 289//
f 115// 110// 290//
f 290// 110// 289//
f 290// 289// 336//
f 336// 289// 335//
f 336// 335// 337//
f 337// 335// 334//
f 337// 334// 338//
f 338// 334// 333//
f 338// 333// 339//
f 339// 333// 332//
f 339// 332// 340//
f 340// 332// 331//
f 340// 331// 341//
f 341// 331// 330//
f 341// 330// 342//
f 342// 330// 329//
f 342// 329// 343//
f 343// 329// 328//
f 343// 328// 344//
f 344// 328// 327//
f 344// 327// 345//
f 345// 327// 326//
f 345// 326// 346//
f 346// 326// 325//
f 346// 325// 347//
f 347// 325// 324//
f 347// 324// 321//
f 321// 324// 323//
f 321// 323// 320//
f 320// 323// 322//
f 291// 290// 336//
f 291// 336// 318//
f 318// 336// 337//
f 318// 337// 316//
f 316// 337// 338//
f 316// 338// 314//
f 314// 338// 339//
f 314// 339// 312//
f 312// 339// 340//
f 312// 340// 310//
f 310// 340// 341//
f 310// 341// 308//
f 306// 308// 342//
f 342// 308// 341//
f 306// 342// 304//
f 304// 342// 343//
f 304// 343// 302//
f 302// 343// 344//
f 302// 344// 300//
f 300// 344// 345//
f 300// 345// 298//
f 298// 345// 346//
f 298// 346// 296//
f 296// 346// 347//
f 296// 347// 294//
f 294// 347// 321//
f 348// 349// 107//
f 107// 349// 98//
f 350// 100// 351//
f 351// 100// 99//
f 99// 98// 351//
f 351// 98// 349//
f 351// 349// 352//
f 352// 349// 353//
f 352// 353// 354//
f 354// 353// 355//
f 354// 355// 356//
f 356// 355// 357//
f 356// 357// 358//
f 358// 357// 359//
f 358// 359// 360//
f 360// 359// 361//
f 360// 361// 362//
f 362// 361// 363//
f 362// 363// 364//
f 364// 363// 365//
f 364// 365// 366//
f 366// 365// 367//
f 366// 367// 368//
f 368// 367// 369//
f 368// 369// 370//
f 370// 369// 371//
f 370// 371// 372//
f 372// 371// 373//
f 372// 373// 374//
f 374// 373// 375//
f 374// 375// 376//
f 376// 375// 377//
f 376// 377// 378//
f 378// 377// 379//
f 376// 378// 380//
f 380// 378// 381//
f 378// 379// 381//
f 381// 379// 382//
f 379// 377// 382//
f 382// 377// 383//
f 365// 384// 385//
f 365// 385// 367//
f 367// 385// 386//
f 367// 386// 369//
f 369// 386// 387//
f 369// 387// 371//
f 371// 387// 388//
f 371// 388// 373//
f 373// 388// 389//
f 373// 389// 375//
f 375// 389// 383//
f 375// 383// 377//
f 365// 363// 384//
f 384// 363// 390//
f 349// 348// 353//
f 353// 348// 391//
f 353// 391// 355//
f 355// 391// 392//
f 355// 392// 357//
f 357// 392// 393//
f 357// 393// 359//
f 359// 393// 394//
f 359// 394// 361//
f 361// 394// 395//
f 361// 395// 363//
f 363// 395// 390//
f 381// 382// 380//
f 380// 382// 383//
f 380// 383// 396//
f 396// 383// 389//
f 396// 389// 397//
f 397// 389// 388//
f 397// 388// 398//
f 398// 388// 387//
f 398// 387// 399//
f 399// 387// 386//
f 399// 386// 400//
f 400// 386// 385//
f 400// 385// 401//
f 401// 385// 384//
f 401// 384// 402//
f 402// 384// 390//
f 402// 390// 403//
f 403// 390// 395//
f 403// 395// 404//
f 404// 395// 394//
f 404// 394// 405//
f 405// 394// 393//
f 405// 393// 406//
f 406// 393// 392//
f 406// 392// 407//
f 407// 392// 391//
f 407// 391// 350//
f 350// 391// 348//
f 350// 348// 100//
f 100// 348// 107//
f 362// 402// 403//
f 362// 403// 360//
f 360// 403// 404//
f 360// 404// 358//
f 358// 404// 405//
f 358// 405// 356//
f 356// 405// 406//
f 356// 406// 354//
f 354// 406// 407//
f 354// 407// 352//
f 352// 407// 350//
f 352// 350// 351//
f 362// 364// 402//
f 402// 364// 401//
f 376// 380// 374//
f 374// 380// 396//
f 374// 396// 372//
f 372// 396// 397//
f 372// 397// 370//
f 370// 397// 398//
f 370// 398// 368//
f 368// 398// 399//
f 368// 399// 366//
f 366// 399// 400//
f 366// 400// 364//
f 364// 400// 401//
f 408// 409// 102//
f 102// 409// 106//
f 410// 104// 411//
f 411// 104// 105//
f 105// 106// 411//
f 411// 106// 409//
f 411// 409// 412//
f 412// 409// 413//
f 412// 413// 414//
f 414// 413// 415//
f 414// 415// 416//
f 416// 415// 417//
f 416// 417// 418//
f 418// 417// 419//
f 418// 419// 420//
f 420// 419// 421//
f 420// 421// 422//
f 422// 421// 423//
f 422// 423// 424//
f 424// 423// 425//
f 424// 425// 426//
f 426// 425// 427//
f 426// 427// 428//
f 428// 427// 429//
f 428// 429// 430//
f 430// 429// 431//
f 430// 431// 432//
f 432// 431// 433//
f 432// 433// 434//
f 434// 433// 435//
f 434// 435// 436//
f 436// 435// 437//
f 436// 437// 438//
f 438// 437// 439//
f 436// 438// 440//
f 440// 438// 441//
f 438// 439// 441//
f 441// 439// 442//
f 439// 437// 442//
f 442// 437// 443//
f 425// 444// 445//
f 425// 445// 427//
f 427// 445// 446//
f 427// 446// 429//
f 429// 446// 447//
f 429// 447// 431//
f 431// 447// 448//
f 431// 448// 433//
f 433// 448// 449//
f 433// 449// 435//
f 435// 449// 443//
f 435// 443// 437//
f 425// 423// 444//
f 444// 423// 450//
f 409// 408// 413//
f 413// 408// 451//
f 413// 451// 415//
f 415// 451// 452//
f 415// 452// 417//
f 417// 452// 453//
f 417// 453// 419//
f 419// 453// 454//
f 419// 454// 421//
f 421// 454// 455//
f 421// 455// 423//
f 423// 455// 450//
f 441// 442// 440//
f 440// 442// 443//
f 440// 443// 456//
f 456// 443// 449//
f 456// 449// 457//
f 457// 449// 448//
f 457// 448// 458//
f 458// 448// 447//
f 458// 447// 459//
f 459// 447// 446//
f 459// 446// 460//
f 460// 446// 445//
f 460// 445// 461//
f 461// 445// 444//
f 461// 444// 462//
f 462// 444// 450//
f 462// 450// 463//
f 463// 450// 455//
f 463// 455// 464//
f 464// 455// 454//
f 464// 454// 465//
f 465// 454// 453//
f 465// 453// 466//
f 466// 453// 452//
f 466// 452// 467//
f 467// 452// 451//
f 467// 451// 410//
f 410// 451// 408//
f 410// 408// 104//
f 104// 408// 102//
f 422// 462// 463//
f 422// 463// 420//
f 420// 463// 464//
f 420// 464// 418//
f 418// 464// 465//
f 418// 465// 416//
f 416// 465// 466//
f 416// 466// 414//
f 414// 466// 467//
f 414// 467// 412//
f 412// 467// 410//
f 412// 410// 411//
f 422// 424// 462//
f 462// 424// 461//
f 436// 440// 434//
f 434// 440// 456//
f 434// 456// 432//
f 432// 456// 457//
f 432// 457// 430//
f 430// 457// 458//
f 430// 458// 428//
f 428// 458// 459//
f 428// 459// 426//
f 426// 459// 460//
f 426// 460// 424//
f 424// 460// 461//
usemtl 3
f 468// 164// 469//
f 469// 164// 163//
f 469// 163// 470//
f 470// 163// 162//
f 470// 162// 471//
f 471// 162// 161//
f 471// 161// 472//
f 472// 161// 160//
f 472// 160// 473//
f 473// 160// 158//
f 473// 158// 474//
f 474// 158// 157//
f 474// 157// 475//
f 475// 157// 156//
f 475// 156// 476//
f 476// 156// 155//
f 476// 155// 477//
f 477// 155// 153//
f 477// 153// 478//
f 478// 153// 152//
f 478// 152// 479//
f 479// 152// 167//
f 479// 167// 480//
f 480// 167// 166//
f 480// 166// 481//
f 481// 166// 165//
f 481// 165// 482//
f 482// 165// 151//
f 482// 151// 483//
f 483// 151// 150//
f 483// 150// 484//
f 484// 150// 149//
f 484// 149// 485//
f 485// 149// 148//
f 485// 148// 486//
f 486// 148// 146//
f 486// 146// 487//
f 487// 146// 145//
f 487// 145// 488//
f 488// 145// 144//
f 488// 144// 489//
f 489// 144// 143//
f 489// 143// 490//
f 490// 143// 141//
f 490// 141// 491//
f 491// 141// 140//
f 491// 140// 468//
f 468// 140// 164//
f 490// 491// 492//
f 492// 491// 468//
f 492// 468// 469//
f 487// 488// 492//
f 492// 488// 489//
f 492// 489// 490//
f 484// 485// 492//
f 492// 485// 486//
f 492// 486// 487//
f 481// 482// 492//
f 492// 482// 483//
f 492// 483// 484//
f 478// 479// 492//
f 492// 479// 480//
f 492// 480// 481//
f 475// 476// 492//
f 492// 476// 477//
f 492// 477// 478//
f 472// 473// 492//
f 492// 473// 474//
f 492// 474// 475//
f 469// 470// 492//
f 492// 470// 471//
f 492// 471// 472//
f 493// 494// 77//
f 77// 494// 78//
f 494// 495// 78//
f 78// 495// 79//
f 495// 496// 79//
f 79// 496// 80//
f 496// 497// 80//
f 80// 497// 81//
f 497// 498// 81//
f 81// 498// 69//
f 498// 499// 69//
f 69// 499// 70//
f 499// 500// 70//
f 70// 500// 75//
f 500// 493// 75//
f 75// 493// 77//
f 501// 497// 502//
f 502// 497// 496//
f 503// 500// 501//
f 501// 500// 499//
f 501// 499// 497//
f 497// 499// 498//
f 503// 504// 500//
f 500// 504// 505//
f 500// 505// 493//
f 493// 505// 506//
f 493// 506// 507//
f 507// 508// 493//
f 493// 508// 502//
f 493// 502// 494//
f 494// 502// 496//
f 494// 496// 495//
f 501// 502// 509//
f 509// 502// 510//
f 503// 501// 511//
f 511// 501// 509//
f 503// 511// 512//
f 503// 512// 504//
f 504// 512// 513//
f 504// 513// 505//
f 506// 505// 514//
f 514// 505// 513//
f 506// 514// 515//
f 506// 515// 507//
f 507// 515// 516//
f 507// 516// 508//
f 502// 508// 510//
f 510// 508// 516//
f 517// 518// 91//
f 91// 518// 92//
f 518// 519// 92//
f 92// 519// 82//
f 519// 520// 82//
f 82// 520// 83//
f 521// 94// 93//
f 521// 93// 522//
f 522// 93// 86//
f 522// 86// 523//
f 523// 86// 85//
f 523// 85// 524//
f 524// 85// 84//
f 524// 84// 525//
f 525// 84// 89//
f 525// 89// 526//
f 526// 89// 88//
f 526// 88// 527//
f 527// 88// 87//
f 527// 87// 528//
f 528// 87// 83//
f 528// 83// 520//
f 517// 91// 90//
f 517// 90// 529//
f 529// 90// 74//
f 529// 74// 530//
f 530// 74// 73//
f 530// 73// 531//
f 531// 73// 72//
f 531// 72// 532//
f 532// 72// 71//
f 532// 71// 533//
f 533// 71// 95//
f 533// 95// 534//
f 534// 95// 94//
f 534// 94// 521//
f 523// 524// 535//
f 535// 524// 525//
f 535// 525// 536//
f 536// 525// 526//
f 536// 526// 537//
f 537// 526// 527//
f 537// 527// 538//
f 538// 527// 528//
f 538// 528// 539//
f 539// 528// 520//
f 539// 520// 540//
f 540// 520// 519//
f 540// 519// 541//
f 541// 519// 518//
f 541// 518// 542//
f 542// 518// 517//
f 542// 517// 543//
f 543// 517// 529//
f 543// 529// 544//
f 544// 529// 530//
f 544// 530// 545//
f 545// 530// 531//
f 545// 531// 546//
f 546// 531// 532//
f 546// 532// 547//
f 547// 532// 533//
f 547// 533// 548//
f 548// 533// 534//
f 548// 534// 549//
f 549// 534// 521//
f 549// 521// 550//
f 550// 521// 522//
f 550// 522// 551//
f 551// 522// 523//
f 551// 523// 535//
f 539// 540// 552//
f 552// 540// 553//
f 539// 552// 554//
f 539// 554// 538//
f 538// 554// 555//
f 538// 555// 537//
f 537// 555// 556//
f 537// 556// 536//
f 536// 556// 557//
f 536// 557// 535//
f 535// 557// 558//
f 535// 558// 551//
f 551// 558// 559//
f 551// 559// 550//
f 550// 559// 560//
f 550// 560// 549//
f 549// 560// 561//
f 549// 561// 548//
f 548// 561// 562//
f 548// 562// 547//
f 547// 562// 563//
f 547// 563// 546//
f 546// 563// 564//
f 546// 564// 545//
f 545// 564// 565//
f 545// 565// 544//
f 544// 565// 566//
f 544// 566// 543//
f 543// 566// 567//
f 543// 567// 542//
f 541// 542// 568//
f 568// 542// 567//
f 540// 541// 553//
f 553// 541// 568//
f 569// 570// 1//
f 1// 570// 2//
f 570// 571// 2//
f 2// 571// 4//
f 571// 572// 4//
f 4// 572// 10//
f 572// 573// 10//
f 10// 573// 19//
f 573// 574// 19//
f 19// 574// 5//
f 574// 575// 5//
f 5// 575// 6//
f 575// 576// 6//
f 6// 576// 7//
f 576// 577// 7//
f 7// 577// 14//
f 577// 578// 14//
f 14// 578// 13//
f 578// 579// 13//
f 13// 579// 11//
f 579// 580// 11//
f 11// 580// 12//
f 580// 569// 12//
f 12// 569// 1//
f 571// 570// 569//
f 569// 580// 571//
f 571// 580// 579//
f 571// 579// 572//
f 574// 573// 575//
f 575// 573// 572//
f 575// 572// 576//
f 576// 572// 579//
f 576// 579// 577//
f 577// 579// 578//
f 581// 582// 9//
f 9// 582// 8//
f 8// 582// 583//
f 584// 61// 63//
f 584// 63// 585//
f 585// 63// 65//
f 585// 65// 583//
f 583// 65// 68//
f 583// 68// 8//
f 61// 584// 18//
f 18// 584// 586//
f 18// 586// 17//
f 17// 586// 587//
f 17// 587// 15//
f 15// 587// 588//
f 15// 588// 45//
f 45// 588// 589//
f 45// 589// 46//
f 46// 589// 590//
f 46// 590// 48//
f 48// 590// 591//
f 48// 591// 50//
f 50// 591// 592//
f 50// 592// 51//
f 593// 55// 54//
f 593// 54// 594//
f 594// 54// 53//
f 594// 53// 595//
f 595// 53// 40//
f 595// 40// 596//
f 596// 40// 22//
f 596// 22// 597//
f 597// 22// 21//
f 597// 21// 598//
f 598// 21// 52//
f 598// 52// 599//
f 599// 52// 51//
f 599// 51// 592//
f 600// 57// 56//
f 600// 56// 601//
f 601// 56// 55//
f 601// 55// 593//
f 600// 602// 57//
f 57// 602// 58//
f 603// 60// 59//
f 603// 59// 604//
f 604// 59// 58//
f 604// 58// 602//
f 605// 29// 39//
f 605// 39// 606//
f 606// 39// 38//
f 606// 38// 607//
f 607// 38// 28//
f 607// 28// 608//
f 608// 28// 27//
f 608// 27// 609//
f 609// 27// 25//
f 609// 25// 610//
f 610// 25// 24//
f 610// 24// 611//
f 611// 24// 60//
f 611// 60// 603//
f 612// 33// 32//
f 612// 32// 613//
f 613// 32// 34//
f 613// 34// 614//
f 614// 34// 35//
f 614// 35// 615//
f 615// 35// 36//
f 615// 36// 616//
f 616// 36// 31//
f 616// 31// 617//
f 617// 31// 30//
f 617// 30// 618//
f 618// 30// 29//
f 618// 29// 605//
f 581// 9// 26//
f 581// 26// 619//
f 619// 26// 37//
f 619// 37// 620//
f 620// 37// 33//
f 620// 33// 612//
f 613// 584// 612//
f 612// 584// 585//
f 612// 585// 620//
f 620// 585// 583//
f 620// 583// 619//
f 619// 583// 582//
f 619// 582// 581//
f 602// 600// 604//
f 604// 600// 601//
f 604// 601// 603//
f 603// 601// 593//
f 603// 593// 611//
f 611// 593// 594//
f 611// 594// 610//
f 610// 594// 595//
f 610// 595// 609//
f 609// 595// 596//
f 609// 596// 608//
f 608// 596// 597//
f 608// 597// 607//
f 607// 597// 598//
f 607// 598// 606//
f 606// 598// 599//
f 606// 599// 605//
f 605// 599// 592//
f 605// 592// 618//
f 618// 592// 591//
f 618// 591// 617//
f 617// 591// 590//
f 617// 590// 616//
f 616// 590// 589//
f 616// 589// 615//
f 615// 589// 588//
f 615// 588// 614//
f 614// 588// 587//
f 614// 587// 613//
f 613// 587// 586//
f 613// 586// 584//
f 621// 622// 47//
f 47// 622// 16//
f 622// 623// 16//
f 16// 623// 43//
f 623// 624// 43//
f 43// 624// 41//
f 624// 625// 41//
f 41// 625// 23//
f 625// 626// 23//
f 23// 626// 49//
f 626// 621// 49//
f 49// 621// 47//
f 625// 624// 626//
f 626// 624// 623//
f 626// 623// 621//
f 621// 623// 622//
usemtl 1
f 509// 510// 511//
f 511// 510// 516//
f 511// 516// 512//
f 512// 516// 515//
f 512// 515// 513//
f 513// 515// 514//
f 553// 568// 552//
f 552// 568// 567//
f 552// 567// 566//
f 560// 559// 552//
f 552// 559// 558//
f 552// 558// 554//
f 566// 565// 552//
f 552// 565// 564//
f 552// 564// 563//
f 563// 562// 552//
f 552// 562// 561//
f 552// 561// 560//
f 557// 556// 558//
f 558// 556// 555//
f 558// 555// 554//
f 132// 627// 130//
f 130// 627// 628//
f 628// 627// 629//
f 629// 627// 630//
f 629// 630// 631//
f 631// 630// 632//
f 631// 632// 633//
f 633// 632// 634//
f 633// 634// 635//
f 635// 634// 636//
f 635// 636// 637//
f 637// 636// 638//
f 637// 638// 639//
f 639// 638// 640//
f 639// 640// 641//
f 641// 640// 642//
f 641// 642// 643//
f 642// 644// 643//
f 643// 644// 129//
f 643// 129// 109//
f 108// 645// 109//
f 109// 645// 643//
f 643// 645// 641//
f 641// 645// 646//
f 641// 646// 639//
f 639// 646// 647//
f 639// 647// 637//
f 637// 647// 648//
f 637// 648// 635//
f 635// 648// 649//
f 635// 649// 633//
f 633// 649// 650//
f 633// 650// 631//
f 631// 650// 651//
f 631// 651// 629//
f 629// 651// 652//
f 629// 652// 628//
f 652// 653// 628//
f 628// 653// 138//
f 628// 138// 130//
f 654// 66// 655//
f 656// 657// 658//
f 659// 660// 661//
f 662// 663// 664//
f 627// 132// 665//
f 632// 630// 666//
f 666// 630// 627//
f 644// 642// 663//
f 663// 642// 640//
f 663// 640// 664//
f 664// 640// 638//
f 664// 638// 636//
f 129// 644// 667//
f 667// 644// 663//
f 667// 663// 668//
f 668// 663// 662//
f 668// 662// 669//
f 669// 662// 670//
f 627// 665// 666//
f 666// 665// 671//
f 666// 671// 672//
f 660// 670// 661//
f 661// 670// 662//
f 661// 662// 673//
f 673// 662// 664//
f 673// 664// 674//
f 674// 664// 636//
f 671// 675// 672//
f 672// 675// 676//
f 672// 676// 677//
f 657// 659// 658//
f 658// 659// 661//
f 658// 661// 678//
f 678// 661// 673//
f 678// 673// 679//
f 679// 673// 674//
f 676// 680// 677//
f 677// 680// 681//
f 677// 681// 682//
f 679// 683// 678//
f 678// 683// 684//
f 678// 684// 658//
f 658// 684// 685//
f 658// 685// 656//
f 634// 632// 686//
f 686// 632// 666//
f 686// 666// 687//
f 687// 666// 672//
f 687// 672// 688//
f 688// 672// 677//
f 688// 677// 689//
f 689// 677// 682//
f 689// 682// 690//
f 690// 682// 655//
f 690// 655// 66//
f 66// 691// 685//
f 685// 691// 692//
f 685// 692// 656//
f 683// 693// 684//
f 684// 693// 694//
f 684// 694// 685//
f 685// 694// 66//
f 693// 695// 694//
f 694// 695// 66//
f 681// 696// 682//
f 682// 696// 697//
f 682// 697// 655//
f 655// 697// 698//
f 655// 698// 654//
f 636// 634// 674//
f 674// 634// 686//
f 674// 686// 679//
f 679// 686// 687//
f 679// 687// 683//
f 683// 687// 688//
f 683// 688// 693//
f 693// 688// 689//
f 693// 689// 695//
f 695// 689// 690//
f 695// 690// 66//
f 699// 700// 701//
f 702// 703// 704//
f 147// 705// 706//
f 707// 705// 147//
f 704// 703// 147//
f 708// 147// 703//
f 709// 646// 645//
f 646// 709// 647//
f 647// 709// 710//
f 647// 710// 648//
f 648// 710// 711//
f 648// 711// 649//
f 649// 711// 712//
f 649// 712// 650//
f 650// 712// 651//
f 651// 712// 713//
f 651// 713// 652//
f 652// 713// 653//
f 653// 713// 714//
f 653// 714// 138//
f 715// 707// 147//
f 716// 717// 702//
f 702// 717// 718//
f 702// 718// 703//
f 703// 718// 719//
f 703// 719// 708//
f 720// 706// 721//
f 721// 706// 705//
f 721// 705// 722//
f 722// 705// 707//
f 722// 707// 723//
f 715// 724// 707//
f 707// 724// 725//
f 707// 725// 723//
f 723// 725// 726//
f 723// 726// 727//
f 701// 720// 728//
f 728// 720// 721//
f 728// 721// 729//
f 729// 721// 722//
f 729// 722// 730//
f 730// 722// 723//
f 730// 723// 731//
f 731// 723// 727//
f 732// 733// 734//
f 734// 733// 699//
f 699// 701// 734//
f 734// 701// 728//
f 734// 728// 735//
f 735// 728// 729//
f 735// 729// 736//
f 736// 729// 730//
f 736// 730// 737//
f 737// 730// 731//
f 737// 731// 738//
f 700// 716// 701//
f 701// 716// 702//
f 701// 702// 720//
f 720// 702// 704//
f 720// 704// 706//
f 706// 704// 147//
f 732// 709// 739//
f 739// 709// 645//
f 739// 645// 108//
f 727// 740// 731//
f 731// 740// 741//
f 731// 741// 738//
f 738// 741// 742//
f 738// 742// 743//
f 732// 734// 709//
f 709// 734// 735//
f 709// 735// 710//
f 710// 735// 736//
f 710// 736// 711//
f 711// 736// 737//
f 711// 737// 712//
f 712// 737// 738//
f 712// 738// 713//
f 713// 738// 743//
f 713// 743// 714//
f 135// 744// 103//
f 103// 744// 745//
f 745// 744// 746//
f 746// 744// 747//
f 746// 747// 748//
f 748// 747// 749//
f 748// 749// 750//
f 750// 749// 751//
f 750// 751// 752//
f 752// 751// 753//
f 752// 753// 754//
f 754// 753// 755//
f 754// 755// 756//
f 756// 755// 757//
f 756// 757// 758//
f 758// 757// 759//
f 758// 759// 760//
f 759// 761// 760//
f 760// 761// 133//
f 760// 133// 131//
f 67// 66// 654//
f 132// 133// 665//
f 665// 133// 762//
f 665// 762// 671//
f 671// 762// 763//
f 671// 763// 675//
f 675// 763// 764//
f 675// 764// 676//
f 676// 764// 765//
f 676// 765// 680//
f 680// 765// 766//
f 680// 766// 681//
f 681// 766// 767//
f 681// 767// 696//
f 696// 767// 768//
f 696// 768// 697//
f 697// 768// 769//
f 697// 769// 698//
f 698// 769// 770//
f 698// 770// 654//
f 654// 770// 771//
f 654// 771// 67//
f 67// 771// 76//
f 64// 62// 772//
f 66// 64// 691//
f 691// 64// 772//
f 691// 772// 692//
f 692// 772// 773//
f 692// 773// 656//
f 656// 773// 774//
f 656// 774// 657//
f 657// 774// 775//
f 657// 775// 659//
f 659// 775// 776//
f 659// 776// 660//
f 660// 776// 777//
f 660// 777// 670//
f 670// 777// 778//
f 670// 778// 669//
f 669// 778// 779//
f 669// 779// 668//
f 668// 779// 780//
f 668// 780// 667//
f 667// 780// 781//
f 667// 781// 129//
f 129// 781// 128//
f 128// 782// 119//
f 119// 782// 783//
f 783// 782// 784//
f 784// 782// 785//
f 784// 785// 786//
f 786// 785// 787//
f 786// 787// 788//
f 788// 787// 789//
f 788// 789// 790//
f 790// 789// 791//
f 790// 791// 792//
f 792// 791// 793//
f 792// 793// 794//
f 794// 793// 795//
f 794// 795// 796//
f 796// 795// 797//
f 796// 797// 798//
f 797// 799// 798//
f 798// 799// 127//
f 798// 127// 125//
f 137// 800// 125//
f 125// 800// 798//
f 798// 800// 796//
f 796// 800// 801//
f 796// 801// 794//
f 794// 801// 802//
f 794// 802// 792//
f 792// 802// 803//
f 792// 803// 790//
f 790// 803// 804//
f 790// 804// 788//
f 788// 804// 805//
f 788// 805// 786//
f 786// 805// 806//
f 786// 806// 784//
f 784// 806// 807//
f 784// 807// 783//
f 807// 808// 783//
f 783// 808// 116//
f 783// 116// 119//
f 108// 116// 739//
f 739// 116// 809//
f 739// 809// 732//
f 732// 809// 810//
f 732// 810// 733//
f 733// 810// 811//
f 733// 811// 699//
f 699// 811// 812//
f 699// 812// 700//
f 700// 812// 813//
f 700// 813// 716//
f 716// 813// 814//
f 716// 814// 717//
f 717// 814// 815//
f 717// 815// 718//
f 718// 815// 816//
f 718// 816// 719//
f 719// 816// 817//
f 719// 817// 708//
f 817// 818// 708//
f 708// 818// 142//
f 708// 142// 147//
f 139// 138// 819//
f 819// 138// 714//
f 819// 714// 820//
f 820// 714// 743//
f 820// 743// 821//
f 821// 743// 742//
f 821// 742// 822//
f 822// 742// 741//
f 822// 741// 823//
f 823// 741// 740//
f 823// 740// 824//
f 824// 740// 727//
f 824// 727// 825//
f 825// 727// 726//
f 825// 726// 826//
f 826// 726// 725//
f 826// 725// 827//
f 827// 725// 724//
f 827// 724// 828//
f 724// 715// 828//
f 828// 715// 147//
f 828// 147// 154//
f 139// 829// 131//
f 131// 829// 760//
f 760// 829// 758//
f 758// 829// 830//
f 758// 830// 756//
f 756// 830// 831//
f 756// 831// 754//
f 754// 831// 832//
f 754// 832// 752//
f 752// 832// 833//
f 752// 833// 750//
f 750// 833// 834//
f 750// 834// 748//
f 748// 834// 835//
f 748// 835// 746//
f 746// 835// 836//
f 746// 836// 745//
f 836// 837// 745//
f 745// 837// 101//
f 745// 101// 103//
f 838// 76// 839//
f 769// 768// 840//
f 767// 766// 841//
f 842// 843// 844//
f 744// 135// 845//
f 749// 747// 846//
f 846// 747// 744//
f 761// 759// 843//
f 843// 759// 757//
f 843// 757// 844//
f 844// 757// 755//
f 844// 755// 753//
f 133// 761// 762//
f 762// 761// 843//
f 762// 843// 763//
f 763// 843// 842//
f 763// 842// 764//
f 764// 842// 765//
f 744// 845// 846//
f 846// 845// 847//
f 846// 847// 848//
f 766// 765// 841//
f 841// 765// 842//
f 841// 842// 849//
f 849// 842// 844//
f 849// 844// 850//
f 850// 844// 753//
f 847// 851// 848//
f 848// 851// 852//
f 848// 852// 853//
f 768// 767// 840//
f 840// 767// 841//
f 840// 841// 854//
f 854// 841// 849//
f 854// 849// 855//
f 855// 849// 850//
f 852// 856// 853//
f 853// 856// 857//
f 853// 857// 858//
f 855// 859// 854//
f 854// 859// 860//
f 854// 860// 840//
f 840// 860// 861//
f 840// 861// 769//
f 751// 749// 862//
f 862// 749// 846//
f 862// 846// 863//
f 863// 846// 848//
f 863// 848// 864//
f 864// 848// 853//
f 864// 853// 865//
f 865// 853// 858//
f 865// 858// 866//
f 866// 858// 839//
f 866// 839// 76//
f 76// 771// 861//
f 861// 771// 770//
f 861// 770// 769//
f 859// 867// 860//
f 860// 867// 868//
f 860// 868// 861//
f 861// 868// 76//
f 867// 869// 868//
f 868// 869// 76//
f 857// 870// 858//
f 858// 870// 871//
f 858// 871// 839//
f 839// 871// 872//
f 839// 872// 838//
f 753// 751// 850//
f 850// 751// 862//
f 850// 862// 855//
f 855// 862// 863//
f 855// 863// 859//
f 859// 863// 864//
f 859// 864// 867//
f 867// 864// 865//
f 867// 865// 869//
f 869// 865// 866//
f 869// 866// 76//
f 772// 62// 873//
f 874// 875// 876//
f 877// 878// 879//
f 880// 881// 882//
f 782// 128// 781//
f 787// 785// 883//
f 883// 785// 782//
f 799// 797// 881//
f 881// 797// 795//
f 881// 795// 882//
f 882// 795// 793//
f 882// 793// 791//
f 127// 799// 884//
f 884// 799// 881//
f 884// 881// 885//
f 885// 881// 880//
f 885// 880// 886//
f 886// 880// 887//
f 782// 781// 883//
f 883// 781// 780//
f 883// 780// 888//
f 878// 887// 879//
f 879// 887// 880//
f 879// 880// 889//
f 889// 880// 882//
f 889// 882// 890//
f 890// 882// 791//
f 780// 779// 888//
f 888// 779// 778//
f 888// 778// 891//
f 875// 877// 876//
f 876// 877// 879//
f 876// 879// 892//
f 892// 879// 889//
f 892// 889// 893//
f 893// 889// 890//
f 778// 777// 891//
f 891// 777// 776//
f 891// 776// 894//
f 893// 895// 892//
f 892// 895// 896//
f 892// 896// 876//
f 876// 896// 897//
f 876// 897// 874//
f 789// 787// 898//
f 898// 787// 883//
f 898// 883// 899//
f 899// 883// 888//
f 899// 888// 900//
f 900// 888// 891//
f 900// 891// 901//
f 901// 891// 894//
f 901// 894// 902//
f 902// 894// 873//
f 902// 873// 62//
f 62// 903// 897//
f 897// 903// 904//
f 897// 904// 874//
f 895// 905// 896//
f 896// 905// 906//
f 896// 906// 897//
f 897// 906// 62//
f 905// 907// 906//
f 906// 907// 62//
f 776// 775// 894//
f 894// 775// 774//
f 894// 774// 873//
f 873// 774// 773//
f 873// 773// 772//
f 791// 789// 890//
f 890// 789// 898//
f 890// 898// 893//
f 893// 898// 899//
f 893// 899// 895//
f 895// 899// 900//
f 895// 900// 905//
f 905// 900// 901//
f 905// 901// 907//
f 907// 901// 902//
f 907// 902// 62//
f 908// 909// 910//
f 911// 912// 913//
f 142// 914// 915//
f 916// 914// 142//
f 913// 912// 142//
f 917// 142// 912//
f 918// 801// 800//
f 801// 918// 802//
f 802// 918// 919//
f 802// 919// 803//
f 803// 919// 920//
f 803// 920// 804//
f 804// 920// 921//
f 804// 921// 805//
f 805// 921// 806//
f 806// 921// 922//
f 806// 922// 807//
f 807// 922// 808//
f 808// 922// 809//
f 808// 809// 116//
f 818// 916// 142//
f 923// 924// 911//
f 911// 924// 925//
f 911// 925// 912//
f 912// 925// 926//
f 912// 926// 917//
f 927// 915// 928//
f 928// 915// 914//
f 928// 914// 929//
f 929// 914// 916//
f 929// 916// 930//
f 818// 817// 916//
f 916// 817// 816//
f 916// 816// 930//
f 930// 816// 815//
f 930// 815// 814//
f 910// 927// 931//
f 931// 927// 928//
f 931// 928// 932//
f 932// 928// 929//
f 932// 929// 933//
f 933// 929// 930//
f 933// 930// 934//
f 934// 930// 814//
f 935// 936// 937//
f 937// 936// 908//
f 908// 910// 937//
f 937// 910// 931//
f 937// 931// 938//
f 938// 931// 932//
f 938// 932// 939//
f 939// 932// 933//
f 939// 933// 940//
f 940// 933// 934//
f 940// 934// 941//
f 909// 923// 910//
f 910// 923// 911//
f 910// 911// 927//
f 927// 911// 913//
f 927// 913// 915//
f 915// 913// 142//
f 935// 918// 942//
f 942// 918// 800//
f 942// 800// 137//
f 814// 813// 934//
f 934// 813// 812//
f 934// 812// 941//
f 941// 812// 811//
f 941// 811// 810//
f 935// 937// 918//
f 918// 937// 938//
f 918// 938// 919//
f 919// 938// 939//
f 919// 939// 920//
f 920// 939// 940//
f 920// 940// 921//
f 921// 940// 941//
f 921// 941// 922//
f 922// 941// 810//
f 922// 810// 809//
f 822// 823// 943//
f 944// 945// 946//
f 154// 947// 948//
f 949// 947// 154//
f 946// 945// 154//
f 828// 154// 945//
f 950// 830// 829//
f 830// 950// 831//
f 831// 950// 951//
f 831// 951// 832//
f 832// 951// 952//
f 832// 952// 833//
f 833// 952// 953//
f 833// 953// 834//
f 834// 953// 835//
f 835// 953// 954//
f 835// 954// 836//
f 836// 954// 837//
f 837// 954// 955//
f 837// 955// 101//
f 956// 949// 154//
f 824// 825// 944//
f 944// 825// 826//
f 944// 826// 945//
f 945// 826// 827//
f 945// 827// 828//
f 957// 948// 958//
f 958// 948// 947//
f 958// 947// 959//
f 959// 947// 949//
f 959// 949// 960//
f 956// 961// 949//
f 949// 961// 962//
f 949// 962// 960//
f 960// 962// 963//
f 960// 963// 964//
f 943// 957// 965//
f 965// 957// 958//
f 965// 958// 966//
f 966// 958// 959//
f 966// 959// 967//
f 967// 959// 960//
f 967// 960// 968//
f 968// 960// 964//
f 820// 821// 969//
f 969// 821// 822//
f 822// 943// 969//
f 969// 943// 965//
f 969// 965// 970//
f 970// 965// 966//
f 970// 966// 971//
f 971// 966// 967//
f 971// 967// 972//
f 972// 967// 968//
f 972// 968// 973//
f 823// 824// 943//
f 943// 824// 944//
f 943// 944// 957//
f 957// 944// 946//
f 957// 946// 948//
f 948// 946// 154//
f 820// 950// 819//
f 819// 950// 829//
f 819// 829// 139//
f 964// 974// 968//
f 968// 974// 975//
f 968// 975// 973//
f 973// 975// 976//
f 973// 976// 977//
f 820// 969// 950//
f 950// 969// 970//
f 950// 970// 951//
f 951// 970// 971//
f 951// 971// 952//
f 952// 971// 972//
f 952// 972// 953//
f 953// 972// 973//
f 953// 973// 954//
f 954// 973// 977//
f 954// 977// 955//
f 20// 76// 838//
f 135// 134// 845//
f 845// 134// 978//
f 845// 978// 847//
f 847// 978// 979//
f 847// 979// 851//
f 851// 979// 980//
f 851// 980// 852//
f 852// 980// 981//
f 852// 981// 856//
f 856// 981// 982//
f 856// 982// 857//
f 857// 982// 983//
f 857// 983// 870//
f 870// 983// 984//
f 870// 984// 871//
f 871// 984// 985//
f 871// 985// 872//
f 872// 985// 986//
f 872// 986// 838//
f 838// 986// 987//
f 838// 987// 20//
f 20// 987// 42//
f 44// 42// 988//
f 62// 44// 903//
f 903// 44// 988//
f 903// 988// 904//
f 904// 988// 989//
f 904// 989// 874//
f 874// 989// 990//
f 874// 990// 875//
f 875// 990// 991//
f 875// 991// 877//
f 877// 991// 992//
f 877// 992// 878//
f 878// 992// 993//
f 878// 993// 887//
f 887// 993// 994//
f 887// 994// 886//
f 886// 994// 995//
f 886// 995// 885//
f 885// 995// 996//
f 885// 996// 884//
f 884// 996// 997//
f 884// 997// 127//
f 127// 997// 126//
f 137// 136// 942//
f 942// 136// 998//
f 942// 998// 935//
f 935// 998// 999//
f 935// 999// 936//
f 936// 999// 1000//
f 936// 1000// 908//
f 908// 1000// 1001//
f 908// 1001// 909//
f 909// 1001// 1002//
f 909// 1002// 923//
f 923// 1002// 1003//
f 923// 1003// 924//
f 924// 1003// 1004//
f 924// 1004// 925//
f 925// 1004// 1005//
f 925// 1005// 926//
f 926// 1005// 1006//
f 926// 1006// 917//
f 1006// 1007// 917//
f 917// 1007// 159//
f 917// 159// 142//
f 96// 101// 1008//
f 1008// 101// 955//
f 1008// 955// 1009//
f 1009// 955// 977//
f 1009// 977// 1010//
f 1010// 977// 976//
f 1010// 976// 1011//
f 1011// 976// 975//
f 1011// 975// 1012//
f 1012// 975// 974//
f 1012// 974// 1013//
f 1013// 974// 964//
f 1013// 964// 1014//
f 1014// 964// 963//
f 1014// 963// 1015//
f 1015// 963// 962//
f 1015// 962// 1016//
f 1016// 962// 961//
f 1016// 961// 1017//
f 961// 956// 1017//
f 1017// 956// 154//
f 1017// 154// 159//
f 988// 42// 1018//
f 985// 984// 1019//
f 983// 982// 1020//
f 1021// 1022// 1023//
f 1024// 126// 997//
f 1025// 1026// 1027//
f 1027// 1026// 1024//
f 1028// 1029// 1022//
f 1022// 1029// 1030//
f 1022// 1030// 1023//
f 1023// 1030// 1031//
f 1023// 1031// 1032//
f 134// 1028// 978//
f 978// 1028// 1022//
f 978// 1022// 979//
f 979// 1022// 1021//
f 979// 1021// 980//
f 980// 1021// 981//
f 1024// 997// 1027//
f 1027// 997// 996//
f 1027// 996// 1033//
f 982// 981// 1020//
f 1020// 981// 1021//
f 1020// 1021// 1034//
f 1034// 1021// 1023//
f 1034// 1023// 1035//
f 1035// 1023// 1032//
f 996// 995// 1033//
f 1033// 995// 994//
f 1033// 994// 1036//
f 984// 983// 1019//
f 1019// 983// 1020//
f 1019// 1020// 1037//
f 1037// 1020// 1034//
f 1037// 1034// 1038//
f 1038// 1034// 1035//
f 994// 993// 1036//
f 1036// 993// 992//
f 1036// 992// 1039//
f 1038// 1040// 1037//
f 1037// 1040// 1041//
f 1037// 1041// 1019//
f 1019// 1041// 1042//
f 1019// 1042// 985//
f 1043// 1025// 1044//
f 1044// 1025// 1027//
f 1044// 1027// 1045//
f 1045// 1027// 1033//
f 1045// 1033// 1046//
f 1046// 1033// 1036//
f 1046// 1036// 1047//
f 1047// 1036// 1039//
f 1047// 1039// 1048//
f 1048// 1039// 1018//
f 1048// 1018// 42//
f 42// 987// 1042//
f 1042// 987// 986//
f 1042// 986// 985//
f 1040// 1049// 1041//
f 1041// 1049// 1050//
f 1041// 1050// 1042//
f 1042// 1050// 42//
f 1049// 1051// 1050//
f 1050// 1051// 42//
f 992// 991// 1039//
f 1039// 991// 990//
f 1039// 990// 1018//
f 1018// 990// 989//
f 1018// 989// 988//
f 1032// 1043// 1035//
f 1035// 1043// 1044//
f 1035// 1044// 1038//
f 1038// 1044// 1045//
f 1038// 1045// 1040//
f 1040// 1045// 1046//
f 1040// 1046// 1049//
f 1049// 1046// 1047//
f 1049// 1047// 1051//
f 1051// 1047// 1048//
f 1051// 1048// 42//
f 1011// 1012// 1052//
f 1053// 1054// 1055//
f 159// 1056// 1057//
f 1058// 1056// 159//
f 1055// 1054// 159//
f 1017// 159// 1054//
f 1059// 1060// 1061//
f 1060// 1059// 1062//
f 1062// 1059// 1063//
f 1062// 1063// 1064//
f 1064// 1063// 1065//
f 1064// 1065// 1066//
f 1066// 1065// 1067//
f 1066// 1067// 1068//
f 1068// 1067// 1069//
f 1069// 1067// 1070//
f 1069// 1070// 1071//
f 1071// 1070// 1072//
f 1072// 1070// 998//
f 1072// 998// 136//
f 1007// 1058// 159//
f 1013// 1014// 1053//
f 1053// 1014// 1015//
f 1053// 1015// 1054//
f 1054// 1015// 1016//
f 1054// 1016// 1017//
f 1073// 1057// 1074//
f 1074// 1057// 1056//
f 1074// 1056// 1075//
f 1075// 1056// 1058//
f 1075// 1058// 1076//
f 1007// 1006// 1058//
f 1058// 1006// 1005//
f 1058// 1005// 1076//
f 1076// 1005// 1004//
f 1076// 1004// 1003//
f 1052// 1073// 1077//
f 1077// 1073// 1074//
f 1077// 1074// 1078//
f 1078// 1074// 1075//
f 1078// 1075// 1079//
f 1079// 1075// 1076//
f 1079// 1076// 1080//
f 1080// 1076// 1003//
f 1009// 1010// 1081//
f 1081// 1010// 1011//
f 1011// 1052// 1081//
f 1081// 1052// 1077//
f 1081// 1077// 1082//
f 1082// 1077// 1078//
f 1082// 1078// 1083//
f 1083// 1078// 1079//
f 1083// 1079// 1084//
f 1084// 1079// 1080//
f 1084// 1080// 1085//
f 1012// 1013// 1052//
f 1052// 1013// 1053//
f 1052// 1053// 1073//
f 1073// 1053// 1055//
f 1073// 1055// 1057//
f 1057// 1055// 159//
f 1009// 1059// 1008//
f 1008// 1059// 1061//
f 1008// 1061// 96//
f 1003// 1002// 1080//
f 1080// 1002// 1001//
f 1080// 1001// 1085//
f 1085// 1001// 1000//
f 1085// 1000// 999//
f 1009// 1081// 1059//
f 1059// 1081// 1082//
f 1059// 1082// 1063//
f 1063// 1082// 1083//
f 1063// 1083// 1065//
f 1065// 1083// 1084//
f 1065// 1084// 1067//
f 1067// 1084// 1085//
f 1067// 1085// 1070//
f 1070// 1085// 999//
f 1070// 999// 998//
f 126// 1024// 124//
f 124// 1024// 1086//
f 1086// 1024// 1087//
f 1087// 1024// 1026//
f 1087// 1026// 1088//
f 1088// 1026// 1025//
f 1088// 1025// 1089//
f 1089// 1025// 1043//
f 1089// 1043// 1090//
f 1090// 1043// 1032//
f 1090// 1032// 1091//
f 1091// 1032// 1031//
f 1091// 1031// 1092//
f 1092// 1031// 1030//
f 1092// 1030// 1093//
f 1093// 1030// 1029//
f 1093// 1029// 1094//
f 1029// 1028// 1094//
f 1094// 1028// 134//
f 1094// 134// 97//
f 96// 1061// 97//
f 97// 1061// 1094//
f 1094// 1061// 1093//
f 1093// 1061// 1060//
f 1093// 1060// 1092//
f 1092// 1060// 1062//
f 1092// 1062// 1091//
f 1091// 1062// 1064//
f 1091// 1064// 1090//
f 1090// 1064// 1066//
f 1090// 1066// 1089//
f 1089// 1066// 1068//
f 1089// 1068// 1088//
f 1088// 1068// 1069//
f 1088// 1069// 1087//
f 1087// 1069// 1071//
f 1087// 1071// 1086//
f 1071// 1072// 1086//
f 1086// 1072// 136//
f 1086// 136// 124//
